<?xml version="1.0" encoding="utf-8"?>
<!-- Generator: Adobe Illustrator 21.0.0, SVG Export Plug-In . SVG Version: 6.00 Build 0)  -->
<svg version="1.1" id="圖層_1" xmlns="http://www.w3.org/2000/svg" xmlns:xlink="http://www.w3.org/1999/xlink" x="0px" y="0px"
	 viewBox="0 0 86 86" style="enable-background:new 0 0 86 86;" xml:space="preserve">
<style type="text/css">
	.st0{fill:#26C9FF;stroke:#26C9FF;stroke-linecap:round;stroke-linejoin:round;stroke-miterlimit:10;}
	.st1{fill:#26C9FF;}
</style>
<g>
	<polygon class="st0" points="5.1,35.6 0.5,42.3 3.4,42.3 1.7,47.6 7,40.1 3.9,40.1 	"/>
	<polygon class="st0" points="72.5,18 69,23.2 71.2,23.2 69.9,27.2 73.9,21.4 71.5,21.4 	"/>
	<polygon class="st0" points="71.8,56.5 67.6,62.6 70.2,62.6 68.6,67.4 73.4,60.5 70.6,60.5 	"/>
	<path class="st0" d="M6.5,56.5H5.8c0,0.3-0.1,0.7-0.4,0.9c-0.2,0.2-0.5,0.4-0.9,0.4s-0.7-0.2-0.9-0.4c-0.2-0.2-0.4-0.6-0.4-0.9
		c0-0.4,0.1-0.7,0.4-0.9c0.2-0.2,0.5-0.4,0.9-0.4s0.7,0.1,0.9,0.4c0.2,0.2,0.4,0.6,0.4,0.9H6.5h0.7c0-0.7-0.3-1.4-0.8-1.9
		s-1.1-0.8-1.9-0.8s-1.4,0.3-1.9,0.8s-0.8,1.2-0.8,1.9c0,0.7,0.3,1.4,0.8,1.9s1.1,0.8,1.9,0.8s1.4-0.3,1.9-0.8s0.8-1.1,0.8-1.9H6.5z
		"/>
	<path class="st0" d="M50.1,19.2h-0.7c0,0.6-0.3,1.2-0.7,1.6c-0.4,0.4-1,0.7-1.6,0.7c-0.6,0-1.2-0.3-1.6-0.7c-0.4-0.4-0.7-1-0.7-1.6
		c0-0.6,0.3-1.2,0.7-1.6s1-0.7,1.6-0.7c0.6,0,1.2,0.3,1.6,0.7s0.7,1,0.7,1.6H50.1h0.7c0-1-0.4-1.9-1.1-2.6c-0.6-0.7-1.6-1.1-2.5-1.1
		c-1,0-1.9,0.4-2.6,1.1c-0.7,0.7-1.1,1.6-1.1,2.6c0,1,0.4,1.9,1.1,2.6c0.6,0.6,1.6,1.1,2.6,1.1c1,0,1.9-0.4,2.5-1.1
		c0.7-0.7,1.1-1.6,1.1-2.6H50.1z"/>
	<path class="st0" d="M84.8,36.4h-0.7c0,0.6-0.3,1.2-0.7,1.6c-0.4,0.4-1,0.7-1.6,0.7c-0.6,0-1.2-0.3-1.6-0.7c-0.4-0.4-0.7-1-0.7-1.6
		c0-0.6,0.3-1.2,0.7-1.6c0.4-0.4,1-0.7,1.6-0.7c0.6,0,1.2,0.3,1.6,0.7c0.4,0.4,0.7,1,0.7,1.6H84.8h0.7c0-1-0.4-1.9-1.1-2.6
		c-0.7-0.7-1.6-1.1-2.6-1.1c-2,0-3.6,1.6-3.6,3.6s1.6,3.6,3.6,3.6c1,0,1.9-0.4,2.6-1.1c0.6-0.7,1.1-1.6,1.1-2.6H84.8z"/>
	<path class="st0" d="M41,71.3v-0.7H10.2V49h30.1v22.3H41v-0.7V71.3h0.7v-23c0-0.2-0.1-0.4-0.2-0.5c-0.1-0.1-0.3-0.2-0.5-0.2H9.5
		c-0.2,0-0.4,0.1-0.5,0.2c-0.1,0.1-0.2,0.3-0.2,0.5v23c0,0.2,0.1,0.3,0.2,0.5C9.2,71.9,9.3,72,9.5,72H41c0.2,0,0.3-0.1,0.5-0.2
		c0.1-0.1,0.2-0.3,0.2-0.5H41z"/>
	<path class="st0" d="M24.2,48.3v-0.7h-9.8v-4.6h9.1v5.3H24.2v-0.7V48.3h0.7v-6c0-0.2-0.1-0.3-0.2-0.5c-0.1-0.1-0.3-0.2-0.5-0.2
		H13.8c-0.2,0-0.4,0.1-0.5,0.2c-0.1,0.1-0.2,0.3-0.2,0.5v6c0,0.2,0.1,0.3,0.2,0.5c0.1,0.1,0.3,0.2,0.5,0.2h10.4
		c0.2,0,0.4-0.1,0.5-0.2c0.1-0.1,0.2-0.3,0.2-0.5H24.2z"/>
	<rect x="13.8" y="54.6" class="st0" width="6" height="1.9"/>
	<rect x="22.3" y="54.6" class="st0" width="6" height="1.9"/>
	<rect x="30.7" y="54.6" class="st0" width="6" height="1.9"/>
	<path class="st0" d="M55.7,71.3v-0.7h-14V48.3c0-0.2-0.1-0.4-0.2-0.5c-0.1-0.1-0.3-0.2-0.5-0.2h-5.8l2.4-16.4h11.5l1,6.7l0.4,3
		l0.7,4.5L55,71.4L55.7,71.3v-0.7V71.3l0.7-0.1l-3.8-25.9l-0.7-4.5l-0.5-3l-1.1-7.3c-0.1-0.3-0.3-0.6-0.7-0.6H37
		c-0.3,0-0.6,0.3-0.7,0.6l-2.6,17.8c0,0.2,0,0.4,0.1,0.5c0.1,0.2,0.3,0.2,0.5,0.2h5.9v22.3c0,0.2,0.1,0.3,0.2,0.5
		c0.1,0.1,0.3,0.2,0.5,0.2h14.7c0.2,0,0.4-0.1,0.5-0.2c0.1-0.2,0.2-0.4,0.2-0.5L55.7,71.3z"/>
	<path class="st0" d="M17.3,33.8L17.1,34L17.3,33.8L17.3,33.8L17.1,34L17.3,33.8c0,0-0.3-0.5-0.6-1.4c-0.3-0.9-0.6-2-0.6-3.3
		c0-0.7,0.1-1.4,0.3-2.1c0.2-0.7,0.6-1.4,1.1-2.2c0.8-1,1.7-1.7,2.7-2.2c1.5-0.7,3.2-1,4.8-1.1c0.8-0.1,1.6-0.1,2.3-0.1
		c0.7,0,1.4-0.1,1.9-0.2c2.8-0.5,5.2-1.6,5.2-1.6l-0.3-0.6l-0.7,0l0.2,0l-0.2,0l0.2,0l-0.2,0v0c0,0.5-0.1,5.1-5.1,11.6
		c-1.4,1.9-3.2,2.9-4.8,3.4c-1.6,0.6-3,0.6-3.8,0.6h-0.4l-0.1,0h0l0,0.2l0-0.2l0,0.2l0-0.2c-0.4,0-0.7,0.2-0.7,0.6
		c0,0.4,0.2,0.7,0.6,0.7c0,0,0.2,0,0.6,0c0.8,0,2.4-0.1,4.2-0.7c1.8-0.6,3.8-1.8,5.5-3.9c5.1-6.7,5.4-11.7,5.4-12.4v-0.1
		c0-0.2-0.1-0.4-0.3-0.5c-0.2-0.1-0.4-0.1-0.6-0.1c-0.1,0.1-2.4,1-4.9,1.5c-0.6,0.1-1.5,0.1-2.5,0.2c-1.5,0.1-3.3,0.1-5.1,0.6
		c-0.9,0.3-1.8,0.6-2.7,1.2c-0.8,0.5-1.7,1.2-2.3,2.1c-0.7,0.8-1.1,1.7-1.4,2.6c-0.3,0.9-0.4,1.7-0.4,2.5c0,1.5,0.4,2.8,0.7,3.8
		c0.4,1,0.7,1.5,0.8,1.6c0.2,0.3,0.6,0.4,0.9,0.2S17.5,34.1,17.3,33.8z"/>
	<path class="st0" d="M24.6,21c-0.6-5.1-2.5-7.6-2.5-7.7c-0.1-0.2-0.3-0.3-0.6-0.3c-0.2,0-0.4,0.1-0.5,0.3c-0.1,0.1-1.4,2.2-3.2,4
		c-0.4,0.4-1.1,0.9-1.9,1.5c-1.2,0.9-2.7,2-3.9,3.4c-0.6,0.7-1.1,1.5-1.5,2.5c-0.4,0.9-0.6,2-0.7,3.1l0,0.4c0,1.5,0.4,2.7,0.9,3.8
		c0.8,1.6,2,2.7,3,3.4c1,0.7,1.8,1.1,1.8,1.1c0.3,0.1,0.7,0,0.9-0.4c0.1-0.3,0-0.7-0.4-0.9l0,0l0,0l0,0l0,0c0,0-1.3-0.6-2.5-1.7
		c-0.6-0.6-1.2-1.3-1.6-2.2c-0.4-0.9-0.7-1.9-0.7-3.1l0-0.4c0.1-1.3,0.4-2.4,1-3.4c0.8-1.5,2.1-2.7,3.3-3.7c0.6-0.5,1.2-0.9,1.8-1.4
		c0.6-0.4,1.1-0.8,1.5-1.2c2-2,3.4-4.2,3.4-4.3l-0.6-0.4L21,14.1l0.3-0.2L21,14.1l0.3-0.2L21,14.1l0.1,0.1c0.3,0.5,1.6,2.7,2.2,6.9
		c0,0.4,0.4,0.6,0.8,0.6C24.4,21.7,24.6,21.3,24.6,21z"/>
	<path class="st0" d="M15.3,39.1c0-0.1,0.5-1.9,1.7-4.1c0.6-1.1,1.4-2.3,2.3-3.3c1-1.1,2.2-2.1,3.5-2.8c2.9-1.5,6.1-3.4,6.1-3.4
		c0.3-0.2,0.4-0.6,0.2-0.9c-0.2-0.3-0.6-0.4-0.9-0.2l-0.1,0.1c-0.6,0.4-3.4,2-5.9,3.3c-1.6,0.8-2.9,1.9-4,3.1
		c-1.6,1.8-2.7,3.8-3.4,5.3c-0.7,1.5-1,2.7-1,2.7c-0.1,0.4,0.1,0.7,0.5,0.8C14.8,39.7,15.2,39.5,15.3,39.1z"/>
	<path class="st0" d="M60.7,35v-0.7c-0.1,0-0.2,0-0.4-0.1c-0.2-0.1-0.5-0.1-0.7,0.1l-0.2,0.1c-0.2,0.1-0.3,0.3-0.3,0.5L57,71.3
		c0,0.2,0,0.4,0.2,0.5c0.1,0.1,0.3,0.2,0.5,0.2h5.9c0.2,0,0.4-0.1,0.5-0.2c0.1-0.1,0.2-0.3,0.2-0.5l-2.1-36.3c0-0.2-0.1-0.4-0.3-0.5
		l-0.2-0.1c-0.2-0.2-0.5-0.2-0.7-0.1c-0.1,0.1-0.3,0.1-0.4,0.1V35v0.7c0.3,0,0.7-0.1,1-0.2l-0.3-0.6l-0.4,0.5l0.2,0.1l0.4-0.5
		l-0.7,0l2.1,35.6h-4.5L60.5,35l-0.7,0l0.4,0.5l0.2-0.1L60,34.8l-0.3,0.6c0.3,0.1,0.6,0.2,1,0.2V35z"/>
	<path class="st0" d="M60,34.8l-0.5-0.5l-0.1,0.1l0,0c-0.3,0.2-0.6,0.5-1,0.8l0.4,0.5l-0.4-0.5c-0.7,0.5-1.5,1.1-2.4,1.8
		c-0.9,0.6-1.9,1.3-2.8,1.9l-1.5,0.9c-0.3,0.2-0.5,0.3-0.8,0.5l0.3,0.6l0.7-0.1l-0.5-3l-0.7,0.1l0.3,0.6c0.5-0.3,0.9-0.6,1.3-0.8
		l0,0c1-0.6,2-1.2,3-1.7c1-0.5,1.9-1,2.7-1.4l0,0c0.5-0.3,1-0.5,1.4-0.7l-0.3-0.6l-0.7-0.1l0,0.1l0,0.2c0,0.4,0.1,0.8,0.4,1.2
		c0.2,0.3,0.5,0.6,0.9,0.8L60,34.8l-0.5-0.5L60,34.8l0.3-0.6C60.2,34.2,60,34,60,33.9c-0.1-0.1-0.1-0.3-0.1-0.5h-0.2l0.2,0v0h-0.2
		l0.2,0l0,0c0-0.3-0.1-0.5-0.3-0.7c-0.2-0.2-0.5-0.2-0.7-0.1c-0.4,0.2-0.9,0.4-1.4,0.7v0c-0.8,0.4-1.7,0.9-2.7,1.4
		c-1,0.5-2,1.1-3,1.7l0.4,0.6l-0.3-0.6c-0.5,0.3-0.9,0.5-1.3,0.8c-0.2,0.2-0.4,0.4-0.3,0.7l0.4,3c0,0.2,0.2,0.4,0.4,0.5
		c0.2,0.1,0.4,0.1,0.6,0c0.3-0.2,0.6-0.3,0.9-0.5l1.5-0.9c1-0.6,2-1.3,2.9-1.9c0.9-0.6,1.8-1.3,2.5-1.8h0c0.4-0.3,0.7-0.6,1-0.8
		L59.8,35l0.4,0.5l0.2-0.2c0.2-0.2,0.3-0.4,0.2-0.6c0-0.2-0.2-0.4-0.4-0.5L60,34.8z"/>
	<path class="st0" d="M76.9,42.6l0.5-0.5c0,0-0.2-0.3-0.6-0.6l-0.5,0.5l0.5-0.5c-0.2-0.2-0.4-0.4-0.7-0.6c-0.3-0.3-0.6-0.5-1-0.8
		c-0.4-0.3-0.7-0.6-1.2-0.9c-0.4-0.3-0.9-0.6-1.3-0.9c-0.5-0.3-0.9-0.6-1.4-0.9c-0.5-0.3-1-0.6-1.5-0.9c-1-0.6-2-1.2-3-1.7
		c-1-0.5-1.9-1-2.7-1.4l0,0c-0.5-0.3-1-0.5-1.4-0.7c-0.2-0.1-0.5-0.1-0.7,0.1c-0.2,0.1-0.3,0.4-0.3,0.6l0,0.1v0l0.1,0h-0.1v0l0.1,0
		h-0.1l0.3,0h-0.3v0l0.3,0h-0.3c0,0.2,0,0.3-0.1,0.5c-0.1,0.1-0.2,0.2-0.3,0.3c-0.2,0.1-0.3,0.3-0.4,0.5c0,0.2,0.1,0.5,0.3,0.6
		l0.2,0.1l1,0.8h0c0.7,0.5,1.5,1.2,2.5,1.8c0.9,0.6,1.9,1.3,2.9,1.9c0.5,0.3,1,0.6,1.5,0.9s1,0.6,1.5,0.9c0.5,0.3,1,0.5,1.4,0.8
		c0.5,0.2,0.9,0.5,1.3,0.6c0.4,0.2,0.8,0.4,1.1,0.5l0.3-0.6l-0.3,0.6c0.3,0.1,0.6,0.3,0.9,0.4l0.2-0.6l-0.2,0.6
		c0.5,0.2,0.8,0.3,0.8,0.3c0.1,0,0.2,0,0.4,0c0.3,0,0.6-0.1,0.8-0.3c0.2-0.2,0.4-0.4,0.5-0.7c0-0.1,0.1-0.2,0.1-0.4
		c0-0.3-0.1-0.7-0.3-0.9L76.9,42.6l-0.5,0.5h0h0h0h0h0l0,0h0l0,0l0,0l0,0v0v0l0,0v0l0,0c0,0-0.3-0.1-0.7-0.3h0
		c-0.2-0.1-0.5-0.2-0.8-0.3h0c-0.3-0.1-0.7-0.3-1.1-0.5c-0.4-0.2-0.8-0.4-1.3-0.6c-0.4-0.2-0.9-0.5-1.4-0.7s-1-0.5-1.4-0.8
		c-0.5-0.3-1-0.6-1.5-0.9v0c-1-0.6-2-1.3-2.9-1.9c-0.9-0.6-1.7-1.2-2.4-1.8l-0.4,0.5l0.4-0.5l-1-0.8l-0.2-0.1l-0.4,0.5l0.3,0.6
		c0.4-0.2,0.7-0.5,0.9-0.8c0.2-0.3,0.4-0.8,0.4-1.2c0-0.1,0-0.1,0-0.2v0l-0.7,0.1L61.9,34c0.4,0.2,0.9,0.4,1.4,0.6l0.3-0.6l-0.3,0.6
		c0.8,0.4,1.7,0.8,2.7,1.4c1,0.5,2,1.1,3,1.7c0.5,0.3,1,0.6,1.5,0.9c0.5,0.3,0.9,0.6,1.4,0.9c0.5,0.3,0.9,0.6,1.3,0.9
		c0.4,0.3,0.8,0.6,1.1,0.9c0.3,0.3,0.7,0.5,0.9,0.8c0.3,0.2,0.5,0.4,0.7,0.6l0,0c0.2,0.2,0.3,0.3,0.4,0.4l0.1,0.1l0,0h0L76.9,42.6z"
		/>
	<path class="st0" d="M61.6,32.3l0.7,0.1c0.1-0.4,0.1-0.9,0.2-1.5v0c0.1-0.9,0.2-1.9,0.3-3c0.1-1.1,0.1-2.3,0.2-3.5v0
		c0-0.6,0-1.2,0-1.8l0,0v-0.2c0-0.5,0-1,0-1.5c0-0.6,0-1.1-0.1-1.6c0-0.5-0.1-1-0.1-1.5c0-0.4-0.1-0.9-0.2-1.2l0,0
		c0-0.4-0.1-0.7-0.2-1l-0.7,0.1l0.7-0.1c-0.1-0.5-0.2-0.9-0.2-0.9c-0.1-0.3-0.3-0.6-0.5-0.7c-0.2-0.2-0.5-0.3-0.8-0.3
		c-0.1,0-0.2,0-0.4,0.1c-0.2,0.1-0.4,0.2-0.6,0.3c-0.2,0.2-0.3,0.4-0.3,0.6c0,0-0.1,0.3-0.2,0.9l0.7,0.1l-0.7-0.1
		c-0.1,0.3-0.1,0.6-0.2,1c-0.1,0.4-0.1,0.8-0.2,1.2c-0.1,0.4-0.1,0.9-0.1,1.4c0,0.5-0.1,1.1-0.1,1.6c0,0.6,0,1.1,0,1.7v1v0.8
		c0,1.2,0,2.4,0.1,3.5c0,1.1,0.1,2.2,0.2,3v0c0.1,0.5,0.1,1,0.2,1.4c0,0.2,0.2,0.4,0.4,0.5c0.2,0.1,0.4,0.1,0.6,0
		c0.1-0.1,0.3-0.1,0.4-0.1c0.2,0,0.4,0.1,0.5,0.2c0.2,0.2,0.5,0.2,0.7,0.1c0.2-0.1,0.4-0.3,0.4-0.5L61.6,32.3l0.4-0.5
		c-0.4-0.3-0.9-0.5-1.4-0.5c-0.4,0-0.8,0.1-1.1,0.3l0.4,0.6l0.7-0.1c0-0.4-0.1-0.9-0.1-1.4l-0.7,0.1l0.7-0.1c-0.1-0.9-0.2-1.9-0.2-3
		c0-1.1-0.1-2.3-0.1-3.4v0v-0.8v-1c0-0.6,0-1.1,0-1.7c0-0.5,0.1-1.1,0.1-1.6c0-0.5,0.1-1,0.1-1.4c0.1-0.4,0.1-0.8,0.2-1.2l0,0
		c0.1-0.4,0.1-0.7,0.2-0.9l0,0c0-0.3,0.1-0.4,0.1-0.6l0-0.1l0,0v0h0h0h0h0l0,0v0l0,0l0,0v0v0v0v0v0v0h0l0,0v0h0l0,0l0,0l0,0l0,0l0,0
		c0,0,0.1,0.3,0.2,0.8v0c0,0.2,0.1,0.5,0.1,0.9v0c0.1,0.3,0.1,0.7,0.2,1.2c0,0.4,0.1,0.9,0.1,1.4c0,0.5,0.1,1,0.1,1.6
		c0,0.5,0,1,0,1.5v0.2l0,0c0,0.6,0,1.2,0,1.7v0c0,1.2-0.1,2.3-0.1,3.4c-0.1,1.1-0.2,2.1-0.3,3l0.7,0.1l-0.7-0.1
		c-0.1,0.6-0.1,1.1-0.2,1.5L61.6,32.3l0.4-0.5L61.6,32.3z"/>
	<path class="st0" d="M60,34.8l-0.3,0.6c0.3,0.1,0.6,0.2,1,0.2s0.7-0.1,1-0.2c0.4-0.2,0.7-0.5,0.9-0.8c0.2-0.3,0.4-0.8,0.4-1.2
		c0-0.1,0-0.1,0-0.2v0l0,0c-0.1-0.6-0.4-1.2-0.8-1.5c-0.4-0.3-0.9-0.5-1.4-0.5c-0.4,0-0.8,0.1-1.1,0.3c-0.6,0.4-1,1-1.1,1.7l0.7,0.1
		l-0.7-0.1l0,0.1l0,0.2c0,0.4,0.1,0.8,0.4,1.2c0.2,0.3,0.5,0.6,0.9,0.8L60,34.8l0.3-0.6C60.2,34.2,60,34,60,33.9
		c-0.1-0.1-0.1-0.3-0.1-0.5h-0.3l0.3,0v0h-0.3l0.3,0l-0.1,0l0.1,0l-0.1,0l0.1,0l0,0v-0.1l0,0c0-0.3,0.2-0.5,0.4-0.7
		c0.1-0.1,0.3-0.1,0.4-0.1c0.2,0,0.4,0.1,0.5,0.2c0.2,0.1,0.3,0.3,0.3,0.6l0.7-0.1l-0.7,0l0,0.1v0l0.1,0h-0.1v0l0.1,0h-0.1l0.3,0
		h-0.3v0l0.3,0h-0.3c0,0.2,0,0.3-0.1,0.5c-0.1,0.1-0.2,0.2-0.3,0.3c-0.1,0.1-0.3,0.1-0.4,0.1s-0.2,0-0.4-0.1L60,34.8z"/>
	<path class="st1" d="M6.2,73h70.6c0.4,0,0.7-0.5,0.7-1c0-0.6-0.3-1-0.7-1H6.2c-0.4,0-0.7,0.4-0.7,1C5.5,72.6,5.8,73,6.2,73z"/>
</g>
</svg>
