<?xml version="1.0" encoding="utf-8"?>
<!-- Generator: Adobe Illustrator 21.0.0, SVG Export Plug-In . SVG Version: 6.00 Build 0)  -->
<svg version="1.1" id="圖層_1" xmlns="http://www.w3.org/2000/svg" xmlns:xlink="http://www.w3.org/1999/xlink" x="0px" y="0px"
	 viewBox="0 0 86 86" style="enable-background:new 0 0 86 86;" xml:space="preserve">
<style type="text/css">
	.st0{fill-rule:evenodd;clip-rule:evenodd;fill:#25C5FE;}
	.st1{fill:#25C5FE;}
</style>
<g>
	<path class="st0" d="M14.8,70.7h56.4V59.4c-1.5,0.2-2.4,0.8-3.4,1.6c-1.3,1-2.7,2-5.4,2c-2.7,0-4.2-1.1-5.4-2
		c-1.1-0.8-2-1.5-3.7-1.6c-0.2,0-0.4,0-0.6,0c-2.1,0-3.1,0.8-4.3,1.7c-1.3,1-2.7,2-5.4,2c-2.7,0-4.2-1.1-5.4-2
		c-1.2-0.9-2.2-1.7-4.3-1.7c-0.2,0-0.4,0-0.5,0C31,59.5,30.1,60.2,29,61c-1.3,1-2.7,2-5.4,2c-2.7,0-4.1-1.1-5.4-2
		c-1-0.8-1.9-1.4-3.4-1.6V70.7z M73,72.5H13V57.6h0.9c2.7,0,4.1,1.1,5.4,2c1.2,0.9,2.2,1.7,4.3,1.7c2.1,0,3.1-0.8,4.3-1.7
		c1.1-0.9,2.4-1.9,4.7-2c0.2,0,0.4,0,0.7,0c2.7,0,4.2,1.1,5.4,2c1.2,0.9,2.2,1.7,4.3,1.7s3.1-0.8,4.3-1.7c1.3-1,2.7-2,5.4-2
		c0.3,0,0.5,0,0.7,0c2.3,0.2,3.6,1.1,4.7,2c1.2,0.9,2.2,1.7,4.3,1.7c2.1,0,3.1-0.8,4.3-1.7c1.3-1,2.7-2,5.4-2H73V72.5z"/>
	<path class="st0" d="M33.3,57.6c2.7,0,4.1,1.1,5.4,2c1.2,0.9,2.2,1.7,4.3,1.7s3.1-0.8,4.3-1.7c1.3-1,2.7-2,5.4-2
		c2.4-6.8,5.8-13.1,10.1-19l0.8-1.1L43,32.4l-20.6,5.1l0.8,1.1C27.5,44.4,30.9,50.8,33.3,57.6z M43,63.1c-2.7,0-4.2-1.1-5.4-2
		c-1.2-0.9-2.2-1.7-4.3-1.7c-0.2,0-0.4,0-0.5,0L32,59.4l-0.2-0.7c-2.4-6.8-5.8-13.3-10.1-19.2l-2.3-3.2L43,30.6l10.3,2.6l13.3,3.3
		l-2.3,3.2c-4.3,5.9-7.7,12.3-10.1,19.2L54,59.4l-0.7-0.1c-0.2,0-0.3,0-0.6,0c-2.1,0-3.1,0.8-4.3,1.7C47.2,62,45.7,63.1,43,63.1z"/>
	<path class="st0" d="M33.8,18.8v14l9.2-2.3l9.2,2.3v-14H33.8z M54,35.1l-11-2.7l-11,2.7V17h22V35.1z"/>
	<path class="st1" d="M43,63.1c-0.5,0-0.9-0.4-0.9-0.9V31.5c0-0.5,0.4-0.9,0.9-0.9s0.9,0.4,0.9,0.9v30.7
		C43.9,62.7,43.5,63.1,43,63.1z"/>
	<path class="st0" d="M49.6,40.1c-0.7,0-1.2,0.8-1.2,1.7c0,0.9,0.6,1.7,1.2,1.7c0.7,0,1.2-0.8,1.2-1.7
		C50.8,40.9,50.3,40.1,49.6,40.1z M49.6,45.3c-1.7,0-3-1.6-3-3.5c0-1.9,1.4-3.5,3-3.5c1.7,0,3,1.6,3,3.5
		C52.6,43.7,51.3,45.3,49.6,45.3z"/>
	<path class="st0" d="M36.4,40.1c-0.7,0-1.2,0.8-1.2,1.7c0,0.9,0.6,1.7,1.2,1.7c0.7,0,1.2-0.8,1.2-1.7
		C37.6,40.9,37.1,40.1,36.4,40.1z M36.4,45.3c-1.7,0-3-1.6-3-3.5c0-1.9,1.4-3.5,3-3.5c1.7,0,3,1.6,3,3.5
		C39.5,43.7,38.1,45.3,36.4,45.3z"/>
	<path class="st0" d="M37.1,27.2h11.8v-4.5H37.1V27.2z M50.7,29H35.3v-8.1h15.4V29z"/>
	<path class="st1" d="M25.4,36.4c-0.4,0-0.7-0.2-0.8-0.6L23,31.8c-0.2-0.5,0-1,0.5-1.1c0.5-0.2,1,0,1.2,0.5l1.6,4.1
		c0.2,0.5,0,1-0.5,1.2C25.6,36.4,25.5,36.4,25.4,36.4z"/>
	<path class="st1" d="M60.5,36.6c-0.1,0-0.2,0-0.4-0.1c-0.5-0.2-0.7-0.7-0.5-1.2l1.7-3.9c0.2-0.5,0.7-0.7,1.2-0.5
		c0.5,0.2,0.7,0.7,0.5,1.2l-1.7,3.9C61.2,36.4,60.8,36.6,60.5,36.6z"/>
	<path class="st0" d="M36.9,17h12.2v-1.7H36.9V17z M50.9,18.8H35.1v-5.3h15.8V18.8z"/>
</g>
</svg>
