<?xml version="1.0" encoding="utf-8"?>
<!-- Generator: Adobe Illustrator 21.0.0, SVG Export Plug-In . SVG Version: 6.00 Build 0)  -->
<svg version="1.1" id="圖層_1" xmlns="http://www.w3.org/2000/svg" xmlns:xlink="http://www.w3.org/1999/xlink" x="0px" y="0px"
	 viewBox="0 0 86 86" style="enable-background:new 0 0 86 86;" xml:space="preserve">
<style type="text/css">
	.st0{fill:#25C5FE;}
	.st1{fill-rule:evenodd;clip-rule:evenodd;fill:#25C5FE;}
	.st2{fill:#26C9FF;}
</style>
<g>
	<path class="st0" d="M67,66.2H19c-3,0-5.5,2.5-5.5,5.5c0,1.1,1.7,1.1,1.7,0c0-2.1,1.7-3.8,3.8-3.8h48c2.1,0,3.8,1.7,3.8,3.8
		c0,1.1,1.7,1.1,1.7,0C72.5,68.6,70,66.2,67,66.2z"/>
	<path class="st1" d="M72.5,14.4c0-0.5-0.4-0.9-0.9-0.9H14.4c-0.5,0-0.9,0.4-0.9,0.9V22c0,0.5,0.4,0.9,0.9,0.9h5.2v3.1
		c0,0.5,0.4,0.9,0.9,0.9h2.3v1.7c0,1.6,1.3,2.9,2.9,2.9h1.3V33L15,40.8l-0.1,0.1c-1.3,0.9-1.7,2.9-0.9,4.4l2.7,4.8
		c-1.9,1.5-0.5,4.7,1.9,4.2l-1,3.2c-0.1,0.4,0,0.8,0.4,1l3.4,2.1c0.9,0.6,1.9-0.9,0.9-1.5l-2.8-1.7l1.3-4.1l0.2-0.1l3.1,5.4
		c0.6,1,2,0.1,1.5-0.9l-3.1-5.4l0.2-0.1l4.1,1l0,3.3c0,1.1,1.7,1.1,1.7,0l0-3.9c0-0.4-0.3-0.7-0.7-0.8l-3.2-0.8
		c1.6-1.8-0.2-4.6-2.5-3.9l-1.4-2.4l10.8-7.1c0.9-0.6,1.4-1.6,1.4-2.7v-3.4h1.3c1.6,0,2.9-1.3,2.9-2.9v-1.7h2.3
		c0.5,0,0.9-0.4,0.9-0.9v-3.1h5v3.1c0,0.5,0.4,0.9,0.9,0.9h2.3v1.7c0,1.6,1.3,2.9,2.9,2.9h1.3V34L46,47.5c-0.8,1.5-0.3,3.4,1.2,4.3
		l5.3,3.1c-0.4,0.4-0.7,1.1-0.1,1.5l1.4,1l-0.1,1.7c0,0.6,0.3,0.9,0.8,0.9l1.7,0l0.9,1.5c0.3,0.4,0.8,0.5,1.2,0.3l1.4-1l1.6,0.7
		c0.5,0.2,0.9,0,1.2-0.5l0.6-1.6l1.7-0.4c0.5-0.2,0.8-0.5,0.6-1.1l-0.5-1.6l1.1-1.3c0.3-0.5,0.3-0.9-0.1-1.3l-1.4-1l0.2-1.7
		c0-0.6-0.3-0.9-0.9-0.9l-1.7,0L61,48.6c-0.3-0.5-0.8-0.5-1.2-0.3l-1.4,1l-1.6-0.7c-0.6-0.3-1.1,0.2-1.3,0.8l-2.7-1.6l1.5-3
		c0.5-1-1-1.8-1.5-0.8l-1.5,2.9l-1-0.6c-0.5-0.3-1.1-0.5-1.7-0.5l4.7-9.3c0.6,0.8,1.5,1.3,2.6,1.3l-1.1,2.2c-0.5,1,1,1.8,1.5,0.8
		l2.3-4.6c0.3-0.4,0.4-1,0.4-1.5v-3.4h1.3c1.6,0,2.9-1.3,2.9-2.9v-1.7h2.3c0.5,0,0.9-0.4,0.9-0.9v-3.1h5.2c0.5,0,0.9-0.4,0.9-0.9
		V14.4z M16,42.2c0.7-0.4,1.6-0.1,2,0.5l2.8,5l-2.5,1.4l-2.7-4.7C15.1,43.7,15.3,42.6,16,42.2z M23,48.6c0.7,0,0.9,0.9,0.3,1.2
		l-4.8,2.7c-0.7,0.4-1.4-0.7-0.6-1.1l4.8-2.7C22.8,48.6,22.9,48.6,23,48.6z M19.5,41.9c-0.3-0.5-0.7-0.9-1.2-1.2l8.6-5.6
		c0.1,1,0.7,1.9,1.6,2.4L20.1,43L19.5,41.9z M31.5,34.7c0,0.8-0.6,1.5-1.4,1.5c-0.8,0-1.5-0.7-1.5-1.5v-3.4h2.9V34.7z M35.7,28.5
		c0,0.6-0.5,1.1-1.2,1.1h-9c-0.6,0-1.2-0.5-1.2-1.1v-1.7h11.3V28.5z M38.8,25.1H21.3v-2.2h17.5V25.1z M58.2,51.1
		c0.3,0.1,0.6,0.1,0.8-0.1l1-0.7l0.6,1.1c0.2,0.3,0.4,0.4,0.7,0.4l1.3,0l-0.1,1.3c0,0.3,0.1,0.6,0.3,0.8l1,0.8l-0.8,1
		c-0.2,0.2-0.3,0.5-0.2,0.8l0.4,1.2L62,57.9c-0.3,0.1-0.5,0.3-0.6,0.6L61,59.6l-1.2-0.5C59.6,59,59.3,59,59,59.2L58,60l-0.6-1.1
		c-0.2-0.3-0.4-0.4-0.7-0.4l-1.3,0l0.1-1.3c0-0.3-0.1-0.6-0.3-0.8l-1-0.8l0.8-1c0.2-0.2,0.3-0.5,0.2-0.8l-0.4-1.2l1.2-0.3
		c0.3-0.1,0.5-0.3,0.6-0.6l0.4-1.2L58.2,51.1z M47.5,48.3c0.4-0.7,1.3-0.9,2-0.5l5.2,3l-1.3,0.3c-0.5,0.2-0.8,0.5-0.6,1.1l0.3,1.1
		l-5.1-3C47.4,49.9,47.1,49,47.5,48.3z M57.4,34.7c0,0.8-0.7,1.5-1.5,1.5c-0.8,0-1.5-0.7-1.5-1.5v-3.4h2.9V34.7z M61.6,28.5
		c0,0.6-0.5,1.1-1.2,1.1h-9c-0.6,0-1.2-0.5-1.2-1.1v-1.7h11.3V28.5L61.6,28.5z M64.8,25.1H47.2v-2.2h17.5V25.1z M70.8,21.2H15.2
		v-2.1h11.7c1.4,0,1.3-1.7,0-1.7H15.2v-2.1h55.5v2.1H31.9c-1.4,0-1.5,1.7-0.1,1.7h38.9V21.2z"/>
	<path class="st1" d="M59,57.9c1.5,0,2.8-1.2,2.8-2.8c0-1.5-1.2-2.8-2.8-2.8s-2.8,1.2-2.8,2.8C56.3,56.6,57.5,57.9,59,57.9z
		 M59,54.1c0.6,0,1,0.5,1,1c0,0.6-0.5,1-1,1s-1-0.5-1-1C58,54.6,58.4,54.1,59,54.1z"/>
	<path class="st2" d="M14.1,72.5h57.9c0.3,0,0.6-0.4,0.6-1s-0.3-1-0.6-1H14.1c-0.3,0-0.6,0.4-0.6,1S13.8,72.5,14.1,72.5z"/>
</g>
</svg>
