<?xml version="1.0" encoding="utf-8"?>
<!-- Generator: Adobe Illustrator 21.0.0, SVG Export Plug-In . SVG Version: 6.00 Build 0)  -->
<svg version="1.1" id="圖層_1" xmlns="http://www.w3.org/2000/svg" xmlns:xlink="http://www.w3.org/1999/xlink" x="0px" y="0px"
	 viewBox="0 0 86 86" style="enable-background:new 0 0 86 86;" xml:space="preserve">
<style type="text/css">
	.st0{fill-rule:evenodd;clip-rule:evenodd;fill:#25C5FE;}
	.st1{fill:#25C5FE;}
</style>
<g>
	<path class="st0" d="M50.1,71.1h21v-8.3c0-0.9-0.7-1.5-1.5-1.5H51.7c-0.8,0-1.5,0.7-1.5,1.5V71.1z M71.8,72.5H49.4
		c-0.4,0-0.7-0.3-0.7-0.7v-9c0-1.6,1.3-3,2.9-3h17.9c1.6,0,2.9,1.3,2.9,3v9C72.5,72.2,72.2,72.5,71.8,72.5z"/>
	<path class="st0" d="M63,59.8h5.3V36.2c0-0.2,0.1-0.4,0.3-0.6c1.2-0.9,2-2.4,2-3.9c0-2.7-2.2-4.9-4.9-4.9c-0.3,0-0.6,0-0.9,0.1
		c-0.2,0-0.5,0-0.6-0.2l-8-8c-0.1-0.1-0.2-0.3-0.2-0.4c-0.3-1.9-1.9-3.3-3.7-3.3c-1.9,0-3.5,1.4-3.8,3.4c0,0.2-0.2,0.4-0.4,0.5
		C44,21,36.3,25,34.5,26v7.7c0,0.2-0.1,0.4-0.2,0.5c-0.6,0.5-0.9,1.2-0.9,2c0,0.6,0.2,1.2,0.6,1.7c0.5,0.6,1.3,1,2,1
		c0.8,0,1.5-0.3,2-1c0.4-0.5,0.6-1.1,0.6-1.7c0-0.8-0.3-1.5-0.9-2c-0.1-0.1-0.2-0.3-0.2-0.5v-6.3c0-0.3,0.2-0.5,0.4-0.6l10.8-5.5
		c0.3-0.1,0.6-0.1,0.8,0.1c0.7,0.7,1.6,1.1,2.6,1.1c0.4,0,0.8-0.1,1.2-0.2c0.3-0.1,0.5,0,0.7,0.2l6.7,6.8c0.2,0.2,0.3,0.5,0.2,0.7
		c-0.2,0.5-0.3,1.1-0.3,1.7c0,1.6,0.7,3,2,3.9c0.2,0.1,0.3,0.3,0.3,0.6V59.8z M69,61.2h-6.7c-0.4,0-0.7-0.3-0.7-0.7V36.6
		c-1.4-1.2-2.2-3-2.2-4.9c0-0.6,0.1-1.2,0.2-1.7l-6.1-6.2c-0.4,0.1-0.8,0.1-1.2,0.1c-1.2,0-2.3-0.4-3.3-1.1l-10,5.1v5.5
		c0.7,0.8,1.1,1.8,1.1,2.8c0,1-0.3,1.9-0.9,2.6c-0.8,0.9-1.9,1.5-3.1,1.5c-1.2,0-2.3-0.5-3.1-1.5c-0.6-0.7-1-1.7-1-2.6
		c0-1.1,0.4-2.1,1.1-2.8v-7.8c0-0.2,0.1-0.5,0.3-0.6c1-0.7,11.7-6.2,13.8-7.3c0.5-2.4,2.6-4.2,5.1-4.2s4.7,1.8,5.1,4.3l7.6,7.6
		c0.3,0,0.5,0,0.8,0c3.5,0,6.3,2.8,6.3,6.3c0,1.9-0.8,3.6-2.2,4.9v23.9C69.7,60.9,69.4,61.2,69,61.2z"/>
	<path class="st1" d="M41.6,43.1c-0.2,0-0.4-0.1-0.5-0.2l-3.6-4c-0.3-0.3-0.2-0.7,0.1-1c0.3-0.3,0.7-0.2,1,0.1l2.4,2.7v-3.2
		c0-0.2-0.2-0.4-0.4-0.4h-1.7c-0.4,0-0.7-0.3-0.7-0.7c0-0.4,0.3-0.7,0.7-0.7h1.7c1,0,1.8,0.8,1.8,1.8v5.1c0,0.3-0.2,0.6-0.5,0.7
		C41.8,43.1,41.7,43.1,41.6,43.1z"/>
	<path class="st1" d="M29.3,43.1c-0.1,0-0.2,0-0.3,0c-0.3-0.1-0.4-0.4-0.4-0.7v-5.1c0-1,0.8-1.8,1.8-1.8h1.7c0.4,0,0.7,0.3,0.7,0.7
		c0,0.4-0.3,0.7-0.7,0.7h-1.7c-0.2,0-0.4,0.2-0.4,0.4v3.2l2.4-2.7c0.3-0.3,0.7-0.3,1-0.1c0.3,0.3,0.3,0.7,0.1,1l-3.6,4
		C29.7,43.1,29.5,43.1,29.3,43.1z"/>
	<path class="st1" d="M46.6,69.1H14.2c-0.4,0-0.7-0.3-0.7-0.7c0-0.4,0.3-0.7,0.7-0.7h32.4c0.4,0,0.7,0.3,0.7,0.7
		C47.3,68.8,47,69.1,46.6,69.1z"/>
	<path class="st0" d="M25,71.1h10.9v-0.3H25V71.1z M36.6,72.5H24.3c-0.4,0-0.7-0.3-0.7-0.7v-1.7c0-0.4,0.3-0.7,0.7-0.7h12.3
		c0.4,0,0.7,0.3,0.7,0.7v1.7C37.3,72.2,37,72.5,36.6,72.5z"/>
	<path class="st0" d="M28.9,69.4H32v-0.3h-3.1V69.4z M32.7,70.8h-4.5c-0.4,0-0.7-0.3-0.7-0.7v-1.7c0-0.4,0.3-0.7,0.7-0.7h4.5
		c0.4,0,0.7,0.3,0.7,0.7v1.7C33.3,70.5,33,70.8,32.7,70.8z"/>
	<path class="st0" d="M14.9,67.7h0.8v-15h-0.8V67.7z M16.4,69.1h-2.2c-0.4,0-0.7-0.3-0.7-0.7V52c0-0.4,0.3-0.7,0.7-0.7h2.2
		c0.4,0,0.7,0.3,0.7,0.7v16.4C17.1,68.8,16.8,69.1,16.4,69.1z"/>
	<path class="st0" d="M45.1,67.7h0.8v-15h-0.8V67.7z M46.6,69.1h-2.2c-0.4,0-0.7-0.3-0.7-0.7V52c0-0.4,0.3-0.7,0.7-0.7h2.2
		c0.4,0,0.7,0.3,0.7,0.7v16.4C47.3,68.8,47,69.1,46.6,69.1z"/>
	<path class="st1" d="M43.8,64h-28c-0.4,0-0.7-0.3-0.7-0.7c0-0.4,0.3-0.7,0.7-0.7h28c0.4,0,0.7,0.3,0.7,0.7
		C44.5,63.7,44.2,64,43.8,64z"/>
	<path class="st0" d="M33.2,60l0.1,0l1.3,0.2c0.3,0,0.5,0.2,0.5,0.5l0.3,0.8l0.4,0l0.1-0.8c0-0.3,0.2-0.5,0.4-0.6l1.2-0.5
		c0.2-0.1,0.5,0,0.7,0.1l0.7,0.6l0.3-0.2l-0.3-0.8c-0.1-0.2,0-0.5,0.1-0.7l0.8-1c0.2-0.2,0.4-0.3,0.7-0.3l0.8,0.2l0.2-0.4l-0.7-0.5
		c-0.2-0.2-0.3-0.4-0.3-0.7l0.2-1.3c0-0.3,0.2-0.5,0.5-0.5l0.8-0.3l0-0.4l-0.9-0.1c-0.3,0-0.5-0.2-0.5-0.5l-0.5-1.2
		c-0.1-0.2,0-0.5,0.1-0.7l0.5-0.7l-0.2-0.3l-0.8,0.3c-0.2,0.1-0.5,0-0.7-0.1l-1-0.8c-0.2-0.2-0.3-0.4-0.3-0.7l0.2-0.8l-0.3-0.2
		l-0.5,0.7c-0.2,0.2-0.4,0.3-0.7,0.3l-1.3-0.2c-0.3,0-0.5-0.2-0.5-0.5L34.4,47l-0.4,0l-0.1,0.8c0,0.3-0.2,0.5-0.5,0.6l-1.2,0.4
		C32,49,31.7,49,31.5,48.8l-0.6-0.6l-0.3,0.2l0.3,0.8c0.1,0.2,0,0.5-0.1,0.7l-0.8,1c-0.2,0.2-0.4,0.3-0.7,0.2l-0.8-0.2l-0.1,0.3
		l0.7,0.5c0.2,0.2,0.3,0.4,0.3,0.7L29,54c0,0.3-0.2,0.5-0.5,0.5l-0.8,0.3l0,0.4l0.8,0.1c0.3,0,0.5,0.2,0.5,0.4l0.5,1.3
		c0.1,0.2,0,0.5-0.1,0.7l-0.5,0.7l0.2,0.3l0.8-0.3c0.2-0.1,0.5,0,0.7,0.1l1,0.8c0.2,0.2,0.3,0.4,0.3,0.7l-0.1,0.8l0.3,0.2l0.5-0.7
		C32.8,60.1,33,60,33.2,60z M34.9,63c-0.3,0-0.6-0.2-0.7-0.5l-0.3-0.9l-0.5-0.1l-0.6,0.8c-0.2,0.3-0.5,0.3-0.8,0.2l-1.3-0.6
		c-0.3-0.1-0.5-0.5-0.4-0.8l0.2-1l-0.4-0.3l-0.9,0.4c-0.3,0.1-0.6,0-0.8-0.3l-0.9-1.2c-0.2-0.3-0.2-0.6,0-0.9l0.6-0.8L28,56.7
		l-1-0.2c-0.3,0-0.6-0.3-0.6-0.6l-0.1-1.5c0-0.3,0.2-0.6,0.5-0.7l0.9-0.3l0.1-0.5L27,52.2c-0.3-0.2-0.3-0.6-0.2-0.8l0.6-1.4
		c0.1-0.3,0.4-0.5,0.8-0.4l1,0.2l0.3-0.4L29,48.5c-0.1-0.3,0-0.7,0.2-0.8l1.2-0.8c0.3-0.2,0.6-0.2,0.9,0l0.8,0.7l0.5-0.2l0.1-1
		c0-0.3,0.3-0.6,0.6-0.6l1.4-0.1c0.3,0,0.6,0.2,0.7,0.5l0.3,0.9l0.5,0.1l0.6-0.8c0.2-0.3,0.6-0.3,0.8-0.2l1.3,0.6
		c0.3,0.1,0.5,0.5,0.4,0.8l-0.2,1l0.4,0.3l0.9-0.4c0.3-0.1,0.6,0,0.8,0.2l0.9,1.2c0.2,0.3,0.2,0.6,0,0.9l-0.6,0.8l0.2,0.5l1,0.1
		c0.3,0,0.6,0.3,0.6,0.6l0.1,1.5c0,0.3-0.2,0.6-0.5,0.7l-0.9,0.3L42,55.7l0.8,0.6c0.3,0.2,0.3,0.5,0.2,0.8l-0.6,1.3
		C42.3,58.8,42,59,41.7,59l-1-0.2l-0.3,0.4l0.4,0.9c0.1,0.3,0,0.6-0.2,0.8l-1.2,0.9c-0.3,0.2-0.6,0.2-0.9,0l-0.8-0.6l-0.5,0.2
		l-0.1,1c-0.1,0.3-0.3,0.6-0.6,0.6L34.9,63L34.9,63z"/>
	<path class="st0" d="M33.3,55.9c0.1,0,0.2,0,0.4,0.1l0.5,0.3c0.2,0.1,0.3,0.3,0.3,0.5l0.1,0.5l0.2-0.4c0.1-0.2,0.3-0.3,0.4-0.4
		l0.5-0.1c0.2,0,0.4,0,0.6,0.1l0.4,0.3l-0.2-0.5c-0.1-0.2,0-0.4,0.1-0.6l0.3-0.5c0.1-0.2,0.3-0.3,0.5-0.3l0.5-0.1l-0.4-0.2
		C37.1,54.4,37,54.2,37,54l-0.1-0.5c-0.1-0.2,0-0.4,0.1-0.6l0.3-0.4l-0.5,0.1c-0.2,0.1-0.4,0-0.6-0.1l-0.5-0.3
		c-0.2-0.1-0.3-0.3-0.3-0.5l-0.1-0.5L35,51.8c-0.1,0.2-0.3,0.3-0.4,0.4l-0.5,0.1c-0.2,0-0.4,0-0.6-0.1L33.1,52l0.2,0.5
		c0.1,0.2,0,0.4-0.1,0.6L33,53.5c-0.1,0.2-0.3,0.3-0.5,0.3L32,53.9l0.4,0.2c0.2,0.1,0.3,0.3,0.3,0.4l0.1,0.5c0,0.2,0,0.4-0.1,0.6
		l-0.3,0.4l0.5-0.2C33.1,55.9,33.2,55.9,33.3,55.9z M34.7,59.1L34.7,59.1L34,59c-0.3,0-0.5-0.3-0.6-0.5l-0.2-1.1l-1,0.3
		c-0.3,0.1-0.6,0-0.8-0.3L30.9,57c-0.2-0.2-0.2-0.6,0-0.8l0.6-0.9l-1-0.5c-0.3-0.1-0.4-0.4-0.4-0.7l0.1-0.7c0-0.3,0.3-0.5,0.6-0.6
		l1.1-0.2l-0.3-1c-0.1-0.3,0-0.6,0.2-0.8l0.5-0.4c0.2-0.2,0.6-0.2,0.8,0l0.9,0.6l0.5-1c0.1-0.3,0.4-0.4,0.7-0.4l0.7,0.1
		c0.3,0,0.5,0.3,0.6,0.5l0.2,1.1l1-0.3c0.3-0.1,0.6,0,0.8,0.2l0.4,0.5c0.2,0.2,0.2,0.6,0,0.8l-0.6,0.9l1,0.5
		c0.3,0.1,0.4,0.4,0.4,0.7l-0.1,0.7c0,0.3-0.3,0.5-0.6,0.6L38,56.1l0.3,1c0.1,0.3,0,0.6-0.2,0.8l-0.5,0.4c-0.2,0.2-0.5,0.2-0.8,0
		l-0.9-0.6l-0.5,1C35.2,59,35,59.1,34.7,59.1z"/>
	<path class="st0" d="M34.9,53.9c-0.2,0-0.4,0.2-0.4,0.4s0.2,0.4,0.4,0.4s0.4-0.2,0.4-0.4S35.1,53.9,34.9,53.9z M34.9,56.1
		c-1,0-1.8-0.8-1.8-1.8c0-1,0.8-1.8,1.8-1.8s1.8,0.8,1.8,1.8C36.7,55.3,35.9,56.1,34.9,56.1z"/>
	<path class="st0" d="M65.1,29c-1.5,0-2.7,1.2-2.7,2.7s1.2,2.7,2.7,2.7c1.5,0,2.7-1.2,2.7-2.7S66.6,29,65.1,29z M65.1,35.8
		c-2.2,0-4-1.8-4-4.1c0-2.3,1.8-4.1,4-4.1c2.2,0,4.1,1.8,4.1,4.1C69.1,34,67.3,35.8,65.1,35.8z"/>
	<path class="st0" d="M65.7,31.3c-0.2,0-0.4,0.2-0.4,0.4c0,0.2,0.2,0.4,0.4,0.4c0.2,0,0.4-0.2,0.4-0.4
		C66.1,31.5,65.9,31.3,65.7,31.3z M65.7,33.5c-1,0-1.8-0.8-1.8-1.8c0-1,0.8-1.8,1.8-1.8s1.8,0.8,1.8,1.8
		C67.5,32.7,66.7,33.5,65.7,33.5z"/>
	<path class="st0" d="M52.2,17.2c-0.8,0-1.5,0.7-1.5,1.5c0,0.9,0.7,1.6,1.5,1.6c0.9,0,1.5-0.7,1.5-1.6
		C53.8,17.9,53.1,17.2,52.2,17.2z M52.2,21.7c-1.6,0-2.9-1.3-2.9-3c0-1.6,1.3-3,2.9-3s2.9,1.3,2.9,3C55.2,20.4,53.8,21.7,52.2,21.7z
		"/>
	<path class="st0" d="M36,35.2c-0.5,0-1,0.4-1,1c0,0.5,0.4,1,1,1c0.5,0,1-0.4,1-1C37,35.7,36.5,35.2,36,35.2z M36,38.6
		c-1.3,0-2.4-1.1-2.4-2.4c0-1.3,1.1-2.4,2.4-2.4c1.3,0,2.4,1.1,2.4,2.4C38.4,37.5,37.3,38.6,36,38.6z"/>
	<path class="st0" d="M20.3,53.7c0.1,0,0.3,0,0.4,0.1l0.5,0.3c0.2,0.1,0.3,0.3,0.3,0.5l0.1,0.6l0.3-0.5c0.1-0.2,0.3-0.3,0.5-0.3
		l0.5-0.1c0.2,0,0.4,0,0.6,0.1l0.5,0.3L23.7,54c-0.1-0.2,0-0.4,0.1-0.6L24,53c0.1-0.2,0.3-0.3,0.5-0.3l0.6-0.1l-0.5-0.3
		c-0.2-0.1-0.3-0.3-0.3-0.5l-0.1-0.6c-0.1-0.2,0-0.4,0.1-0.6l0.3-0.5L24,50.4c-0.2,0-0.4,0-0.6-0.1L23,50c-0.2-0.1-0.3-0.3-0.3-0.5
		L22.5,49l-0.3,0.5c-0.1,0.2-0.3,0.3-0.5,0.3l-0.5,0.1c-0.2,0-0.4,0-0.6-0.1l-0.5-0.3l0.2,0.6c0.1,0.2,0,0.4-0.1,0.6L20,51.1
		c-0.1,0.2-0.3,0.3-0.5,0.3L19,51.5l0.5,0.3c0.2,0.1,0.3,0.3,0.3,0.5l0.1,0.5c0,0.2,0,0.4-0.1,0.6l-0.3,0.5l0.6-0.2
		C20.1,53.7,20.2,53.7,20.3,53.7z M21.7,57l-0.1,0l-0.7-0.1c-0.3,0-0.5-0.3-0.6-0.6l-0.2-1.1L19,55.5c-0.3,0.1-0.6,0-0.8-0.3
		l-0.4-0.6c-0.2-0.3-0.2-0.6,0-0.8l0.6-0.9l-1-0.5c-0.3-0.1-0.4-0.4-0.4-0.7l0.1-0.7c0-0.3,0.3-0.5,0.6-0.6l1.1-0.2L18.6,49
		c-0.1-0.3,0-0.6,0.3-0.8l0.6-0.4c0.2-0.2,0.6-0.2,0.8,0l0.9,0.7l0.6-1c0.1-0.3,0.4-0.4,0.7-0.3l0.7,0.1c0.3,0,0.5,0.3,0.6,0.6
		l0.2,1.1l1.1-0.3c0.3-0.1,0.6,0,0.8,0.3l0.4,0.6c0.2,0.2,0.2,0.6,0,0.8l-0.6,0.9l1,0.5c0.3,0.1,0.4,0.4,0.4,0.7l-0.1,0.7
		c-0.1,0.3-0.3,0.5-0.6,0.6L25.1,54l0.3,1.1c0.1,0.3,0,0.6-0.3,0.8l-0.6,0.4c-0.2,0.2-0.6,0.2-0.8,0l-0.9-0.7l-0.5,1
		C22.2,56.8,21.9,57,21.7,57z"/>
	<path class="st0" d="M22.6,52.1L22.6,52.1L22.6,52.1z M21.5,51.6c-0.2,0-0.4,0.2-0.4,0.4c0,0.2,0.2,0.4,0.4,0.4
		c0.2,0,0.4-0.2,0.4-0.4C21.9,51.8,21.7,51.6,21.5,51.6L21.5,51.6z M21.5,53.9L21.5,53.9c-1.1,0-1.8-0.9-1.8-1.9
		c0-1,0.9-1.8,1.9-1.8c1,0,1.8,0.9,1.8,1.9C23.3,53.1,22.4,53.9,21.5,53.9z"/>
	<path class="st0" d="M62.1,67.8c0.1,0,0.2,0,0.3,0.1l0.5,0.3c0.2,0.1,0.3,0.3,0.3,0.5l0.1,0.6l0.3-0.5c0.1-0.2,0.3-0.3,0.4-0.4
		l0.5-0.1c0.2-0.1,0.4,0,0.6,0.1l0.5,0.3l-0.2-0.6c-0.1-0.2,0-0.4,0.1-0.6l0.3-0.5c0.1-0.2,0.3-0.3,0.5-0.3l0.6-0.1l-0.5-0.3
		c-0.2-0.1-0.3-0.3-0.4-0.5l-0.1-0.5c-0.1-0.2,0-0.4,0.1-0.6l0.3-0.5l-0.6,0.2c-0.2,0.1-0.4,0-0.6-0.1l-0.5-0.3
		c-0.2-0.1-0.3-0.3-0.3-0.5L64.2,63L64,63.6c-0.1,0.2-0.3,0.3-0.4,0.4L63,64.1c-0.2,0.1-0.4,0-0.6-0.1L62,63.7l0.2,0.6
		c0.1,0.2,0,0.4-0.1,0.6l-0.3,0.5c-0.1,0.2-0.3,0.3-0.5,0.3l-0.6,0.1l0.5,0.3c0.2,0.1,0.3,0.3,0.4,0.4l0.1,0.5c0,0.2,0,0.4-0.1,0.6
		l-0.3,0.5l0.6-0.2C62,67.8,62.1,67.8,62.1,67.8z M63.6,71.1L63.6,71.1L62.8,71c-0.3,0-0.5-0.3-0.6-0.5L62,69.3l-1.1,0.3
		c-0.3,0.1-0.6,0-0.8-0.2l-0.4-0.6c-0.2-0.2-0.2-0.6,0-0.8l0.6-1l-1-0.5c-0.3-0.1-0.4-0.4-0.4-0.7l0.1-0.7c0-0.3,0.3-0.5,0.6-0.6
		l1.1-0.2l-0.3-1.1c-0.1-0.3,0-0.6,0.2-0.8l0.6-0.4c0.2-0.2,0.6-0.2,0.8,0l1,0.6l0.5-1c0.1-0.3,0.4-0.4,0.7-0.4l0.7,0.1
		c0.3,0,0.5,0.3,0.6,0.5l0.2,1.1l1.1-0.3c0.3-0.1,0.6,0,0.8,0.2l0.4,0.6c0.2,0.2,0.2,0.6,0,0.8l-0.6,1l1,0.5
		c0.3,0.1,0.4,0.4,0.4,0.7l-0.1,0.7c0,0.3-0.3,0.5-0.5,0.6L67,68l0.3,1.1c0.1,0.3,0,0.6-0.2,0.8l-0.6,0.4c-0.2,0.2-0.6,0.2-0.8,0
		l-0.9-0.6l-0.5,1C64.1,70.9,63.9,71.1,63.6,71.1z"/>
	<path class="st0" d="M64.4,65.7c-0.2,0-0.4,0.2-0.4,0.4c0,0.2,0.2,0.4,0.4,0.4c0.2,0,0.4-0.2,0.4-0.4
		C64.8,65.9,64.6,65.7,64.4,65.7z M64.4,68c-1,0-1.8-0.8-1.8-1.8s0.8-1.8,1.8-1.8s1.8,0.8,1.8,1.8S65.4,68,64.4,68z"/>
	<path class="st0" d="M54,67.9c0.1,0,0.3,0,0.4,0.1l0.4,0.3c0.2,0.1,0.3,0.3,0.3,0.5l0,0.1l0-0.1c0.1-0.2,0.3-0.3,0.5-0.3l0.4-0.1
		c0.2,0,0.4,0,0.6,0.1l0.1,0l0-0.1c0-0.2,0-0.4,0.1-0.6l0.2-0.4c0.1-0.2,0.3-0.3,0.5-0.3l0.1,0l-0.1,0c-0.2-0.1-0.3-0.3-0.3-0.5
		L57,66.1c0-0.2,0-0.4,0.1-0.6l0-0.1l-0.1,0c-0.2,0.1-0.4,0-0.6-0.1l-0.4-0.2c-0.2-0.1-0.3-0.3-0.3-0.5l0-0.1l0,0.1
		c-0.1,0.2-0.3,0.3-0.5,0.3l-0.4,0.1c-0.2,0-0.4,0-0.6-0.1l-0.1,0l0,0.1c0.1,0.2,0,0.4-0.1,0.6L53.9,66c-0.1,0.2-0.3,0.3-0.5,0.3
		l-0.1,0l0.1,0c0.2,0.1,0.3,0.3,0.3,0.5l0.1,0.4c0,0.2,0,0.4-0.1,0.6l0,0.1l0.1,0C53.9,67.9,54,67.9,54,67.9z M55.2,70.8l-0.1,0
		l-0.6-0.1c-0.3,0-0.5-0.3-0.6-0.6l-0.1-0.8l-0.7,0.2c-0.3,0.1-0.6,0-0.8-0.3L52,68.8c-0.2-0.3-0.2-0.6,0-0.8l0.4-0.6l-0.7-0.4
		c-0.3-0.2-0.4-0.4-0.3-0.7l0.1-0.6c0-0.3,0.3-0.5,0.6-0.6l0.7-0.1l-0.2-0.7c-0.1-0.3,0-0.6,0.3-0.8l0.5-0.3c0.2-0.2,0.6-0.2,0.8,0
		l0.6,0.4l0.4-0.7c0.1-0.3,0.4-0.4,0.7-0.3l0.6,0.1c0.3,0,0.5,0.3,0.6,0.6l0.1,0.7l0.7-0.2c0.3-0.1,0.6,0,0.8,0.3l0.3,0.5
		c0.2,0.2,0.2,0.6,0,0.8L58.5,66l0.7,0.4c0.3,0.2,0.4,0.4,0.4,0.7l-0.1,0.6c0,0.3-0.3,0.5-0.6,0.6l-0.7,0.1l0.2,0.7
		c0.1,0.3,0,0.6-0.3,0.8l-0.5,0.3c-0.3,0.2-0.6,0.2-0.8,0l-0.6-0.4l-0.4,0.7C55.7,70.7,55.4,70.8,55.2,70.8z"/>
	<path class="st0" d="M55.4,66.6C55.4,66.6,55.4,66.6,55.4,66.6c-0.1,0.1-0.1,0.1-0.1,0.1l0.3,0c0,0,0-0.1,0-0.1
		C55.5,66.6,55.5,66.6,55.4,66.6L55.4,66.6z M56,66.7L56,66.7L56,66.7z M55.3,66.7C55.3,66.7,55.3,66.8,55.3,66.7
		c0.1,0.1,0.1,0.1,0.1,0.1c0,0,0.1,0,0.1,0c0,0,0-0.1,0-0.1L55.3,66.7z M55.4,68L55.4,68c-0.4,0-0.7-0.2-0.9-0.4s-0.4-0.6-0.3-0.9
		c0-0.3,0.2-0.7,0.4-0.9c0.3-0.2,0.6-0.3,0.9-0.3c0.3,0,0.7,0.2,0.9,0.4c0.2,0.2,0.3,0.6,0.3,0.9c0,0.3-0.2,0.7-0.4,0.9
		C56.1,67.9,55.8,68,55.4,68z"/>
	<path class="st0" d="M65.7,56.1c-0.2,0-0.4,0.2-0.4,0.4s0.2,0.4,0.4,0.4c0.2,0,0.4-0.2,0.4-0.4S65.9,56.1,65.7,56.1z M65.7,58.4
		c-1,0-1.8-0.8-1.8-1.8c0-1,0.8-1.8,1.8-1.8s1.8,0.8,1.8,1.8C67.5,57.6,66.7,58.4,65.7,58.4z"/>
	<path class="st0" d="M65.7,50.5c-0.2,0-0.4,0.2-0.4,0.4c0,0.2,0.2,0.4,0.4,0.4c0.2,0,0.4-0.2,0.4-0.4
		C66.1,50.7,65.9,50.5,65.7,50.5z M65.7,52.7c-1,0-1.8-0.8-1.8-1.8c0-1,0.8-1.8,1.8-1.8s1.8,0.8,1.8,1.8
		C67.5,51.9,66.7,52.7,65.7,52.7z"/>
	<path class="st0" d="M65.7,44.8c-0.2,0-0.4,0.2-0.4,0.4c0,0.2,0.2,0.4,0.4,0.4c0.2,0,0.4-0.2,0.4-0.4C66.1,45,65.9,44.8,65.7,44.8z
		 M65.7,47.1c-1,0-1.8-0.8-1.8-1.8c0-1,0.8-1.8,1.8-1.8s1.8,0.8,1.8,1.8C67.5,46.3,66.7,47.1,65.7,47.1z"/>
	<path class="st0" d="M65.7,39.2c-0.2,0-0.4,0.2-0.4,0.4c0,0.2,0.2,0.4,0.4,0.4c0.2,0,0.4-0.2,0.4-0.4
		C66.1,39.4,65.9,39.2,65.7,39.2z M65.7,41.5c-1,0-1.8-0.8-1.8-1.8c0-1,0.8-1.8,1.8-1.8s1.8,0.8,1.8,1.8
		C67.5,40.6,66.7,41.5,65.7,41.5z"/>
</g>
</svg>
