<?xml version="1.0" encoding="utf-8"?>
<!-- Generator: Adobe Illustrator 21.0.0, SVG Export Plug-In . SVG Version: 6.00 Build 0)  -->
<svg version="1.1" id="圖層_1" xmlns="http://www.w3.org/2000/svg" xmlns:xlink="http://www.w3.org/1999/xlink" x="0px" y="0px"
	 viewBox="0 0 86 86" style="enable-background:new 0 0 86 86;" xml:space="preserve">
<style type="text/css">
	.st0{fill-rule:evenodd;clip-rule:evenodd;fill:#26C9FF;}
	.st1{fill:#26C9FF;}
</style>
<g>
	<path class="st0" d="M17.9,26.4l7,1.4l-8,3.3l-1.5-3.7L17.9,26.4z M58.4,16.1c1.6-0.7,3.4-0.8,5-0.4l0.6,0.2l-4.9,2l0.8,1.9
		l7.4-3.1l1,0.3c0.6,0.2,1.1,0.5,1.5,0.9L33.1,33.1l-14.9,1.1L17.7,33l11-4.5c0.1,0,0.1-0.1,0.2-0.1L58.4,16.1z M68.7,22.7l-9.4,3.9
		l1.6-2.8l9.6-4C70.6,21,69.8,22.2,68.7,22.7z M36.8,51.9l-2.3-1.2l5.5-2.2l2.5,1.1L36.8,51.9z M44.6,48.3l-3.8-1.7l8-17.9l8.9-3.7
		L44.6,48.3z M34.7,36.7l-15.5-0.7l14.2-1c0.1,0,0.2,0,0.3-0.1l12.5-5.2L45,32.5L34.7,36.7z M15.5,32.8l1.9,4.6
		c0.1,0.4,0.5,0.6,0.9,0.6l16.5,0.7h0c0.1,0,0.3,0,0.4-0.1l8.5-3.5l-5.3,11.7l-6.8,2.8c-0.4,0.1-0.6,0.5-0.6,0.9
		c0,0.4,0.2,0.8,0.5,0.9l2.8,1.5l-0.8,0.3l0.8,1.8l3-1.3l0,0l8-3.3c0,0,0,0,0,0c0,0,0.1,0,0.2-0.1l0.1-0.1l0.1-0.1
		c0,0,0.1-0.1,0.1-0.1c0,0,0,0,0,0l11.7-20.7l11.8-4.9c2.5-1.1,3.8-4,2.7-6.5c-0.6-1.5-1.9-2.5-3.4-2.9l-4.8-1.2
		c-2.1-0.5-4.3-0.4-6.3,0.4L28.2,26.5L18,24.4c-0.2,0-0.4,0-0.6,0L13.7,26c-0.5,0.2-0.8,0.8-0.5,1.3L15.5,32.8z"/>
	<polygon class="st1" points="55.4,19.5 57.3,18.7 58,20.6 56.2,21.3 	"/>
	<rect x="52" y="20.5" transform="matrix(0.925 -0.38 0.38 0.925 -4.2083 21.773)" class="st1" width="2" height="2"/>
	<polygon class="st1" points="29.9,54.8 31.7,54 32.5,55.9 30.6,56.6 	"/>
	<polygon class="st1" points="26.2,56.3 28,55.5 28.8,57.4 26.9,58.2 	"/>
	<polygon class="st1" points="48.1,22.6 49.9,21.8 50.7,23.6 48.8,24.4 	"/>
	<path class="st0" d="M47,64.5h10v6H47V64.5z M61,57.5v13h-2v-13H61z M63.2,47.5l0.5,2h-7.4l0.5-2H63.2z M58.6,55.5l-2-4h6.8l-2,4
		H58.6z M69,64.5v6h-6v-6H69z M72,70.5h-1v-7c0-0.5-0.4-1-1-1h-7v-5h3v-2h-2.4l2.3-4.5c0-0.1,0.1-0.2,0.1-0.3v-0.1
		c0-0.1,0-0.2,0-0.3v0l-1-4c-0.1-0.5-0.5-0.8-1-0.8h-3v-4h-2v4h-3c-0.5,0-0.9,0.3-1,0.8l-1,4v0c0,0.1,0,0.2,0,0.3v0.1
		c0,0.1,0.1,0.2,0.1,0.3l2.3,4.5H54v2h3v5H46c-0.5,0-1,0.5-1,1v7H14c-0.6,0-1,0.5-1,1c0,0.6,0.4,1,1,1h58c0.6,0,1-0.4,1-1
		C73,71,72.6,70.5,72,70.5z"/>
	<rect x="49" y="66.5" class="st1" width="2" height="2"/>
	<rect x="53" y="66.5" class="st1" width="2" height="2"/>
	<rect x="65" y="66.5" class="st1" width="2" height="2"/>
</g>
</svg>
