<?xml version="1.0" encoding="utf-8"?>
<!-- Generator: Adobe Illustrator 21.0.0, SVG Export Plug-In . SVG Version: 6.00 Build 0)  -->
<svg version="1.1" id="圖層_1" xmlns="http://www.w3.org/2000/svg" xmlns:xlink="http://www.w3.org/1999/xlink" x="0px" y="0px"
	 viewBox="0 0 86 86" style="enable-background:new 0 0 86 86;" xml:space="preserve">
<style type="text/css">
	.st0{fill-rule:evenodd;clip-rule:evenodd;fill:#25C5FE;}
	.st1{fill:#25C5FE;}
</style>
<g>
	<path class="st0" d="M19,70.1V40.7c0-0.7,0.5-1.2,1.2-1.2h1.2h13.4H36c0.4,0,0.8,0.3,1,0.6c-4,1.2-7.3,4.2-9,8.2l1.1,0.5
		c2.1-4.9,6.9-8.1,12.2-8.1c7.3,0,13.2,6,13.2,13.4s-5.9,13.4-13.2,13.4S28,61.5,28,54.1c0-1.3,0.2-2.5,0.5-3.7L27.4,50
		c-0.4,1.3-0.6,2.7-0.6,4c0,6,3.6,11.2,8.7,13.4h-2.7c-1.2,0-2.2,1-2.2,2.2v0.6c0,0.4,0.1,0.7,0.3,1H20.2C19.6,71.3,19,70.8,19,70.1
		z M22.6,32.7h0.2h10.6h0.2v5.7h-11V32.7z M24,24.9l0.9-0.9h0.9v2.9L24.1,30h8l-1.7-3.2V24h0.9l0.9,0.9v6.6H24V24.9z M30.2,28.8H26
		l0.6-1.3h2.8L30.2,28.8z M29.3,24v2.4h-2.4V24H29.3z M49.6,68.6c0.6,0,1,0.5,1,1v0.6c0,0.6-0.5,1-1,1H36h0h-3.2c-0.6,0-1-0.5-1-1
		v-0.6c0-0.6,0.5-1,1-1H49.6z M58.6,51.8h0.2h8H67v19.5H62h-3.5V51.8z M60,43.9h0.2h5.2h0.2v6.8H60V43.9z M61.3,35
		c0.5,0,1.4,0.2,2,0.7c0.6,0.5,0.8,1.3,0.8,2.3v4.6h-2.8V35z M45.4,16.8c0-0.6,0.5-1.2,1.2-1.2h15.8c0.6,0,1.2,0.5,1.2,1.2V30h-2.9
		v-2.4h-1.3v-6l2-0.5v-3.9h-5.2h-2.3L49.6,20v7.5h-1.3V30h-2.9V16.8z M58.2,21.7v5.8h-7.4v-6.9l3.4-2.3h1.9v3.3H58.2z M60.2,20.1
		l-1.5,0.4h-1.4v-2.2h2.9V20.1z M49.5,30v-1.2h0.1h9.7h0.1V30H49.5z M70.2,71.3h-2.1V50.7h-1.4v-8h-1.4v-4.6c0-1.4-0.4-2.5-1.2-3.2
		c-1.4-1.2-3.3-1-3.4-1l-0.5,0.1v8.8h-1.4v8h-1.4v20.7h-5.9c0.2-0.3,0.3-0.7,0.3-1v-0.6c0-1.2-1-2.2-2.2-2.2h-2.7
		c5.1-2.2,8.7-7.4,8.7-13.4c0-6.5-4.3-12.1-10.1-13.9v-9h2.9h12.3h2.9v2.4h1.2v-2.4V30V16.8c0-1.3-1-2.4-2.3-2.4H46.6
		c-1.3,0-2.3,1-2.3,2.4V30v1.2v8.7c-1-0.2-2-0.3-3.1-0.3c-1,0-2.1,0.1-3.1,0.3C37.8,39,37,38.4,36,38.4h-1.2v-6.9h-1.4v-7.1
		l-1.6-1.6h-1.4h-4.7h-1.4l-1.6,1.6v7.1h-1.4v6.9h-1.2c-1.3,0-2.3,1.1-2.3,2.4v29.4c0,0.4,0.1,0.8,0.3,1.2h-2.4v1.2h4.4h12.6H36h11
		h2.6h7.8H62h6.1h2.1V71.3z"/>
	<path class="st0" d="M57.6,19.7h1.1l1.2-0.3v-1.2h-2.3V19.7z M58.7,20.3H57v-2.8h3.5v2.3L58.7,20.3z M27.2,25.5H29v-1.8h-1.8V25.5z
		 M29.6,26.1h-2.9v-3h2.9V26.1z M51.1,26.7h6.8v-5.3h-2.1v-3.3h-1.5l-3.2,2.2V26.7z M58.5,27.3h-8v-7.3l3.6-2.4h2.3v3.3h2.1V27.3z
		 M26.5,27.9h3.2l-0.3-0.6h-2.5L26.5,27.9z M30.6,28.5h-5.1l1-1.8h3.2L30.6,28.5z M49.8,29.1h9.4v-0.6h-9.4V29.1z M59.8,29.7H49.2
		v-1.8h10.5V29.7z M60.9,29.1h2.3V16.2c0-0.5-0.4-0.9-0.9-0.9H46.6c-0.5,0-0.9,0.4-0.9,0.9v12.9H48v-2.4h1.3v-7.4l4.4-3h7.9v4.4
		l-2,0.5v5.5h1.3V29.1z M63.8,29.7h-3.5v-2.4h-1.3v-6.5l2-0.5v-3.3h-7.1l-4,2.7v7.6h-1.3v2.4h-3.5V16.2c0-0.8,0.7-1.5,1.5-1.5h15.8
		c0.8,0,1.5,0.7,1.5,1.5V29.7z M24.3,24.4v4.1l1.2-2.3v-2.5H25L24.3,24.4z M30.7,26.2l1.2,2.3v-4.1l-0.7-0.7h-0.5V26.2z M24.3,30.6
		h7.7v-0.9h-7.7V30.6z M32.5,31.2h-8.8v-1.5h-0.1l0.1-0.2v-5.4l1-1.1H26v3.2l-1.5,2.8h7.1l-1.5-2.8v-3.2h1.3l1,1.1v5.4l0.1,0.2h-0.1
		V31.2z M22.9,37.5h10.4v-5.1H22.9V37.5z M33.9,38.1H22.3v-6.3h11.6V38.1z M61.6,41.8h2.3v-4.3c0-1-0.3-1.7-0.8-2.1
		c-0.4-0.4-1-0.6-1.5-0.6V41.8z M64.5,42.4H61v-8.3l0.3,0c0.6,0,1.5,0.2,2.2,0.8c0.6,0.6,0.9,1.4,0.9,2.6V42.4z M60.2,49.8h5v-6.2
		h-5V49.8z M65.9,50.4h-6.2V43h6.2V50.4z M20.2,39.3c-0.5,0-0.9,0.4-0.9,0.9v29.4c0,0.5,0.4,0.9,0.9,0.9h10.2
		c-0.1-0.2-0.1-0.5-0.1-0.7v-0.6c0-1.4,1.1-2.5,2.5-2.5h1.4c-4.7-2.6-7.7-7.6-7.7-13.1c0-1.4,0.2-2.8,0.6-4.1l0.1-0.3l1.7,0.5
		l-0.1,0.3c-0.3,1.2-0.5,2.4-0.5,3.6c0,7.2,5.8,13.1,12.9,13.1s12.9-5.9,12.9-13.1s-5.8-13.1-12.9-13.1c-5.2,0-9.9,3.1-11.9,7.9
		l-0.1,0.3l-1.6-0.7l0.1-0.3c1.6-3.9,4.8-6.9,8.8-8.2c-0.1-0.1-0.3-0.2-0.5-0.2H20.2z M31.4,71H20.2c-0.8,0-1.5-0.7-1.5-1.5V40.1
		c0-0.8,0.7-1.5,1.5-1.5H36c0.5,0,1,0.3,1.3,0.8l0.2,0.3l-0.3,0.1c-3.9,1.2-7.1,4-8.7,7.8l0.5,0.2c2.2-4.9,7-8,12.3-8
		c7.5,0,13.5,6.1,13.5,13.7s-6.1,13.7-13.5,13.7S27.7,61,27.7,53.5c0-1.2,0.1-2.4,0.4-3.5l-0.6-0.2c-0.3,1.2-0.5,2.4-0.5,3.7
		c0,5.7,3.4,10.9,8.5,13.1l1.3,0.6h-4.1c-1,0-1.9,0.9-1.9,1.9v0.6c0,0.3,0.1,0.6,0.2,0.9L31.4,71z M36.3,70.4h13.3
		c0.4,0,0.7-0.3,0.7-0.7v-0.6c0-0.4-0.3-0.7-0.7-0.7H32.8c-0.4,0-0.7,0.3-0.7,0.7v0.6c0,0.4,0.3,0.7,0.7,0.7H36.3z M49.6,71H32.8
		c-0.7,0-1.3-0.6-1.3-1.3v-0.6c0-0.7,0.6-1.3,1.3-1.3h16.8c0.7,0,1.3,0.6,1.3,1.3v0.6C50.9,70.4,50.3,71,49.6,71z M58.8,70.4h7.8
		V51.5h-7.8V70.4z M67.3,71h-9V51h9V71z M16.1,71.6h53.8V71h-2.1V50.4h-1.4v-8h-1.4v-4.9c0-1.3-0.4-2.3-1.1-3
		c-1.3-1.2-3.2-0.9-3.2-0.9l-0.3,0v8.8h-1.4v8h-1.4V71H51l0.2-0.4c0.2-0.3,0.2-0.6,0.2-0.9v-0.6c0-1.1-0.8-1.9-1.9-1.9h-4.1l1.3-0.6
		c5.2-2.3,8.5-7.4,8.5-13.1c0-6.3-4-11.8-9.9-13.6l-0.2-0.1v-9.5h18.7v2.4h0.6V16.2c0-1.1-0.9-2.1-2-2.1H46.6c-1.1,0-2,0.9-2,2.1
		v23.5l-0.4-0.1c-2-0.4-4-0.4-6,0l-0.2,0l-0.1-0.2c-0.3-0.8-1.1-1.3-1.9-1.3h-1.5v-6.9h-1.4v-7.3l-1.4-1.4h-7.2l-1.4,1.4v7.3h-1.4
		v6.9h-1.5c-1.1,0-2,0.9-2,2.1v29.4c0,0.3,0.1,0.7,0.3,1l0.3,0.4h-2.6V71.6z M70.5,72.2h-55v-1.8h2.2c-0.1-0.3-0.2-0.6-0.2-0.9V40.1
		c0-1.5,1.2-2.7,2.6-2.7h0.9v-6.9h1.4v-6.9l1.7-1.8H32l1.7,1.8v6.9h1.4v6.9H36c1,0,1.9,0.6,2.3,1.4c1.9-0.4,3.8-0.4,5.7,0V16.2
		c0-1.5,1.2-2.7,2.6-2.7h15.8c1.4,0,2.6,1.2,2.6,2.7v17.1h-1.8v-2.4H45.7v8.5c6.1,2,10.1,7.6,10.1,14.1c0,5.5-3,10.5-7.7,13.1h1.4
		c1.4,0,2.5,1.1,2.5,2.5v0.6c0,0.3,0,0.5-0.1,0.7h5.2V49.8h1.4v-8h1.4v-8.7l0.8-0.1c0,0,2.1-0.3,3.7,1.1c0.9,0.8,1.3,1.9,1.3,3.4
		v4.3H67v8h1.4v20.7h2.1V72.2z"/>
	<path class="st0" d="M41.2,44c5.2,0,9.4,4.3,9.4,9.5S46.4,63,41.2,63s-9.4-4.3-9.4-9.5S36,44,41.2,44z M41.2,64.2
		c5.8,0,10.6-4.8,10.6-10.7S47,42.8,41.2,42.8c-5.8,0-10.6,4.8-10.6,10.7S35.4,64.2,41.2,64.2z"/>
	<path class="st0" d="M41.2,44.3c-5,0-9.1,4.1-9.1,9.2s4.1,9.2,9.1,9.2s9.1-4.1,9.1-9.2S46.2,44.3,41.2,44.3z M41.2,63.3
		c-5.3,0-9.7-4.4-9.7-9.8c0-5.4,4.3-9.8,9.7-9.8s9.7,4.4,9.7,9.8C50.9,58.9,46.5,63.3,41.2,63.3z M41.2,43.1
		c-5.7,0-10.3,4.7-10.3,10.4s4.6,10.4,10.3,10.4c5.7,0,10.3-4.7,10.3-10.4S46.8,43.1,41.2,43.1z M41.2,64.5c-6,0-10.9-4.9-10.9-11
		s4.9-11,10.9-11c6,0,10.9,4.9,10.9,11S47.2,64.5,41.2,64.5z"/>
	<polygon class="st1" points="42.5,50 41.7,49.2 37.3,53.7 38.1,54.5 	"/>
	<path class="st0" d="M37.7,53.1l0.4,0.4l4-4L41.7,49L37.7,53.1z M38.1,54.3l-1.2-1.3l4.8-4.9l1.2,1.3L38.1,54.3z"/>
	
		<rect x="41.2" y="56.7" transform="matrix(0.7113 -0.7029 0.7029 0.7113 -28.1984 45.8674)" class="st1" width="1.1" height="1.2"/>
	<path class="st0" d="M41.3,57.2l0.4,0.4l0.4-0.4l-0.4-0.4L41.3,57.2z M41.8,58.5l-1.2-1.3l1.2-1.2l1.2,1.3L41.8,58.5z"/>
</g>
</svg>
