<?xml version="1.0" encoding="utf-8"?>
<!-- Generator: Adobe Illustrator 21.0.0, SVG Export Plug-In . SVG Version: 6.00 Build 0)  -->
<svg version="1.1" id="圖層_1" xmlns="http://www.w3.org/2000/svg" xmlns:xlink="http://www.w3.org/1999/xlink" x="0px" y="0px"
	 viewBox="0 0 86 86" style="enable-background:new 0 0 86 86;" xml:space="preserve">
<style type="text/css">
	.st0{fill-rule:evenodd;clip-rule:evenodd;fill:#25C5FE;}
	.st1{fill:#25C5FE;}
</style>
<g>
	<path class="st0" d="M7.9,66.6c-0.4-1.4-1.3-4.4-1.3-7.8c0-1.3,0.2-2.2,0.7-2.5C7.5,56.1,7.7,56,7.9,56c0,5.2,0.9,8.8,0.9,8.9
		c0.1,0.4,0.5,0.8,1,0.8l15.8,0.3v0.5H7.9z M22.2,27.5l11.3-7.3l1.7,2.2l-9.9,6.9c-0.1-0.2-0.2-0.4-0.3-0.5
		c-0.5-0.7-1.4-1.2-2.3-1.3L22.2,27.5z M14.9,37.7c0.3,0.1,0.6,0.2,0.9,0.2l5.1,0.7c-1.5,2.6-2.7,5.5-3.4,8.5
		c-0.7,2.9-1.1,5.9-1.1,8.9c0,3.6,0.5,6.4,0.8,7.8l-6.5-0.1c-0.3-1.4-0.8-4.4-0.7-8.2C10.1,50.8,11,44,14.9,37.7z M15.7,32.8
		c0,1.3,0.6,2.3,1.6,3l-1.8-0.2c-0.1-0.1-0.2-0.2-0.3-0.3c-0.2-0.3-0.3-0.6-0.2-0.9l0.6-4.4c0.1-0.6,0.6-1.1,1.3-1.1l0.2,0l1.9,0.3
		C17.1,29.4,15.7,31,15.7,32.8z M20.6,36.3c1.5-0.5,2.5-1.8,2.5-3.4c0-1.5-1-2.8-2.3-3.4l1.6,0.2c0.4,0,0.7,0.2,0.9,0.5
		c0.2,0.3,0.3,0.6,0.2,0.9l-0.6,4.4c-0.1,0.5-0.4,0.8-0.8,1L20.6,36.3z M19.4,34.4c-0.9,0-1.6-0.7-1.6-1.6s0.7-1.6,1.6-1.6
		S21,32,21,32.8S20.3,34.4,19.4,34.4z M40.9,22.5L40.9,22.5l5,7.7c0.3,0.5,0.3,0.9,0.3,1c-0.2,0-0.5-0.2-0.9-0.8l-5-7.7L40.9,22.5z
		 M41.1,19.4c-0.1,0.3-0.2,0.6-0.5,0.8l-1.9,1.3l-0.1,0l-0.1,0c-0.6,0.3-1.3,0.1-1.7-0.4l-1.7-2.4c-0.2-0.3-0.3-0.6-0.2-0.9
		c0.1-0.3,0.2-0.6,0.5-0.8l1.9-1.3c0.2-0.1,0.5-0.2,0.8-0.2c0.4,0,0.8,0.2,1.1,0.5l1.7,2.4C41.1,18.8,41.2,19.1,41.1,19.4z
		 M26.3,70.1c0.2,0.2,0.5,0.3,0.7,0.3c0.3,0,0.5-0.1,0.8-0.3c0.3-0.4,0.4-0.9,0.1-1.3c0-0.1-0.1-0.6-0.2-1.9c0-0.9,0-1.7,0-1.7
		c0-0.3-0.1-0.6-0.3-0.8C27.3,64.2,27,64,26.7,64l-7.4-0.2c-0.3-1.1-0.9-4-0.9-7.9c0-4.5,0.9-11.3,5.1-17.8c0-0.1,0.1-0.2,0.1-0.3
		c0.7-0.5,1.1-1.3,1.3-2.2l0.5-4l11.5-8c0.5,0.1,1,0.1,1.5,0.1l0.1,0.2l5,7.7l0,0c0.5,0.6,1,1.1,1.6,1.4c0.7,0.3,1.5,0.3,2.1,0
		c0.6-0.4,1-1,1-1.9c0-0.6-0.2-1.3-0.6-2l0-0.1l-5-7.7l0,0l-0.2-0.2c0.3-0.4,0.5-0.9,0.6-1.4c0.1-0.9-0.1-1.8-0.6-2.5l-1.7-2.4
		c-1.1-1.5-3.2-1.8-4.7-0.8l-1.9,1.3c-0.7,0.5-1.2,1.3-1.4,2.2c0,0.2,0,0.4,0,0.6L19,27.1l-1.7-0.2c-1.8-0.2-3.5,1-3.8,2.8l-0.6,4.4
		c-0.1,0.7,0.1,1.5,0.4,2.1c-1.9,3-3.3,6.3-4.2,9.8c-0.6,2.5-1,5.1-1.2,7.8c-0.6,0-1.3,0.2-1.9,0.7c-1.1,0.8-1.6,2.2-1.5,4.2
		c0.1,5,1.7,9,1.7,9.1c0.2,0.4,0.5,0.7,1,0.7h18.5C25.8,69.4,26,69.8,26.3,70.1z"/>
	<path class="st0" d="M38.3,18.5c0,0.1,0,0.1-0.1,0.1c-0.1,0.1-0.3,0.1-0.3,0c0,0-0.1-0.1-0.1-0.1c0-0.1,0-0.1,0.1-0.1
		c0,0,0.1-0.1,0.2-0.1c0,0,0.1,0,0.2,0.1C38.2,18.4,38.3,18.5,38.3,18.5z M36.5,16.9c-0.4,0.4-0.7,1-0.7,1.6c0,0.6,0.2,1.2,0.6,1.6
		c0.4,0.4,1,0.7,1.7,0.7c0.6,0,1.1-0.2,1.5-0.6c0.5-0.4,0.7-1,0.7-1.6c0-0.6-0.2-1.2-0.6-1.6C38.9,16.1,37.4,16,36.5,16.9z"/>
	<path class="st0" d="M49.6,51v1.8H46V51H49.6z M34.1,52.8V51h4.1v1.8H34.1z M29,58.3v-2.8c0-0.3,0.3-0.6,0.6-0.6h36.3
		c0.3,0,0.6,0.3,0.6,0.6v2.8c0,0.3-0.3,0.6-0.6,0.6H29.5C29.2,58.9,29,58.6,29,58.3z M38.2,60.9V66c0,1.1-1,2.2-2.1,2.2
		c-0.5,0-1-0.2-1.4-0.6c-0.4-0.4-0.6-1-0.6-1.6v-5.1H38.2z M49.6,60.9V66c0,1.2-0.8,2.2-1.9,2.2c-0.5,0-0.9-0.2-1.2-0.6
		C46.1,67.3,46,66.8,46,66v-5.1H49.6z M62,60.9V66c0,1.2-0.8,2.2-1.9,2.2c-0.5,0-1.2-0.3-1.5-0.6c-0.3-0.3-0.7-0.9-0.7-1.6v-5.1H62z
		 M57.9,52.8V51H62v1.8H57.9z M51.9,51c0.6,0,1-0.5,1-1c0-0.6-0.5-1-1-1h-8.3c-0.6,0-1,0.5-1,1c0,0.6,0.5,1,1,1h0.3v1.8h-3.6V51
		c0.5-0.1,0.8-0.5,0.8-1c0-0.6-0.5-1-1-1h-7.8c-0.6,0-1,0.5-1,1c0,0.5,0.3,0.9,0.8,1v1.8h-2.5c-1.5,0-2.6,1.2-2.6,2.7v2.8
		c0,1.5,1.2,2.7,2.6,2.7H32V66c0,1.1,0.4,2.2,1.2,3c0.7,0.8,1.8,1.3,2.9,1.3c1.1,0,2.1-0.5,2.9-1.3c0.8-0.8,1.3-1.9,1.3-3v-5.1h3.6
		V66c0,1.2,0.3,2.3,1,3c0.8,0.9,1.7,1.3,2.8,1.3c2.2,0,4-1.9,4-4.3v-5.1h4.1V66c0,1,0.5,2.1,1.3,3c0.7,0.8,1.9,1.3,3,1.3
		c2.2,0,4-1.9,4-4.3v-5.1h1.8c1.5,0,2.7-1.2,2.7-2.7v-2.8c0-1.5-1.2-2.7-2.7-2.7h-1.8V51h0.3c0.6,0,1-0.5,1-1c0-0.6-0.5-1-1-1H56
		c-0.6,0-1,0.5-1,1c0,0.5,0.3,0.9,0.8,1v1.8h-4.1V51H51.9z"/>
	<path class="st0" d="M49.1,44.9c-0.1,0.2-0.4,0.6-1.3,0.6c-0.9,0-1.2-0.3-1.3-0.5c-0.5-0.8-0.4-2.7,0.3-5.1
		c0.2-0.7,0.4-1.3,0.6-1.9c0.3,0.5,0.6,1.2,0.8,1.8C49.2,42.2,49.5,44.1,49.1,44.9z M48.2,35c-0.2-0.3-0.6-0.5-0.9-0.5
		c-0.4,0-0.7,0.3-0.9,0.6c0,0.1-0.9,1.9-1.6,4.2c-0.9,3.2-1,5.5,0,6.9c0.4,0.7,1.3,1.4,2.9,1.4h0.2c1.8-0.1,2.6-0.9,3-1.7
		c0.8-1.4,0.5-3.8-0.7-6.9C49.3,36.9,48.3,35.1,48.2,35z"/>
	<path class="st0" d="M70.8,40v-3.3l3.1-1.8l3.1,1.8v3.4l-2.9,1.8L70.8,40z M58.9,32.4v-3.3l3.1-1.9l3.1,1.9v3.4l-2.9,1.8L58.9,32.4
		z M61,21.7v3.8l-3.6,2.2c-0.3,0.2-0.5,0.5-0.5,0.9V33c0,0.4,0.2,0.7,0.5,0.9l4.3,2.5c0.3,0.2,0.7,0.2,1.1,0l3.3-2l2.7,2.2V40
		l-3.1,1.7c-0.5,0.3-0.7,0.9-0.4,1.4c0.2,0.3,0.5,0.5,0.9,0.5c0.2,0,0.3,0,0.5-0.1l3.1-1.7l3.1,1.8v3.5c0,0.6,0.5,1,1,1s1-0.5,1-1
		v-3.3l3.6-2.2c0.3-0.2,0.5-0.5,0.5-0.9v-4.6c0-0.4-0.2-0.7-0.5-0.9l-4.1-2.5c-0.3-0.2-0.7-0.2-1.1,0l-3.5,2.1l-2.7-2.2v-3.5
		l3.1-1.8c0.2-0.1,0.4-0.4,0.5-0.6c0.1-0.3,0-0.5-0.1-0.8c-0.1-0.2-0.4-0.4-0.6-0.5c-0.3-0.1-0.5,0-0.8,0.1l-3.1,1.8L63,25.5v-3.8
		c0-0.6-0.5-1-1-1c0.5,0,1-0.5,1-1v-1c0-0.6-0.5-1-1-1c-0.6,0-1,0.5-1,1v1c0,0.6,0.4,1,1,1C61.4,20.7,61,21.2,61,21.7z"/>
	<path class="st1" d="M63.7,42.8l-0.5,0.3c-0.5,0.3-0.6,1-0.3,1.5c0.2,0.3,0.5,0.5,0.9,0.5c0.2,0,0.4-0.1,0.6-0.2l0.5-0.3
		c0.5-0.3,0.6-1,0.3-1.4C64.8,42.6,64.2,42.5,63.7,42.8z"/>
	<path class="st1" d="M25.8,50.6c0.4-0.4,0.5-1,0.1-1.5c-0.2-0.2-0.4-0.3-0.7-0.4c-0.3,0-0.5,0.1-0.8,0.2c-2.5,2.1-2.2,5.2-2.2,5.4
		c0.1,0.5,0.5,1,1,1l0.1,0c0.3,0,0.5-0.2,0.7-0.4c0.2-0.2,0.3-0.5,0.2-0.8C24.4,54.1,24.2,52,25.8,50.6z"/>
	<path class="st1" d="M23.2,55.9c-0.6,0-1,0.5-1,1v1.6c0,0.6,0.5,1,1,1c0.6,0,1-0.5,1-1V57C24.2,56.4,23.8,55.9,23.2,55.9z"/>
	<path class="st1" d="M44.2,19.5c-0.1,0.3,0,0.5,0.1,0.8c0.1,0.2,0.4,0.4,0.6,0.5c0.1,0,0.2,0,0.3,0c0.5,0,0.9-0.3,1-0.7
		c0-0.1,0.7-2.4-0.3-4.2c-0.3-0.5-0.9-0.7-1.4-0.4c-0.5,0.3-0.7,0.9-0.4,1.4C44.6,17.9,44.2,19.4,44.2,19.5z"/>
	<path class="st0" d="M79.4,50.4c0,0.9-0.7,1.6-1.6,1.6s-1.6-0.7-1.6-1.6s0.7-1.6,1.6-1.6S79.4,49.6,79.4,50.4z M79,53.9
		c1.5-0.5,2.5-1.9,2.5-3.4c0-2-1.7-3.6-3.7-3.6s-3.7,1.6-3.7,3.6c0,1.7,1.2,3.1,2.8,3.5c-0.1,6.2-2.3,12-6.2,16.8
		c-0.4,0.5-0.3,1.1,0.2,1.5c0.2,0.2,0.4,0.2,0.7,0.2c0.3,0,0.6-0.1,0.8-0.4c2.1-2.6,3.7-5.6,4.9-8.7C78.4,60.4,79,57.1,79,53.9z"/>
</g>
</svg>
