<?xml version="1.0" encoding="utf-8"?>
<!-- Generator: Adobe Illustrator 21.0.0, SVG Export Plug-In . SVG Version: 6.00 Build 0)  -->
<svg version="1.1" id="圖層_1" xmlns="http://www.w3.org/2000/svg" xmlns:xlink="http://www.w3.org/1999/xlink" x="0px" y="0px"
	 viewBox="0 0 60 59" style="enable-background:new 0 0 60 59;" xml:space="preserve">
<style type="text/css">
	.st0{fill-rule:evenodd;clip-rule:evenodd;fill:#26C9FF;}
	.st1{fill:#26C9FF;}
</style>
<g>
	<path class="st0" d="M4.9,12.9l7,1.4l-8,3.3l-1.5-3.7L4.9,12.9z M45.4,2.6c1.6-0.7,3.4-0.8,5-0.4l0.7,0.2l-4.9,2l0.8,1.8l7.4-3.1
		l1,0.3c0.6,0.2,1.1,0.5,1.5,0.9L20.1,19.6L5.2,20.6l-0.5-1.2l11-4.5c0.1,0,0.1-0.1,0.2-0.1L45.4,2.6z M55.7,9.2l-9.4,3.9l1.6-2.8
		l9.7-4C57.6,7.5,56.8,8.7,55.7,9.2z M23.8,38.4l-2.3-1.2l5.5-2.2l2.5,1.1L23.8,38.4z M31.6,34.8l-3.8-1.7l8-17.9l8.9-3.7L31.6,34.8
		z M21.7,23.2L6.2,22.6l14.2-1c0.1,0,0.2,0,0.3-0.1l12.5-5.2L32,19L21.7,23.2z M2.5,19.3l1.9,4.6c0.2,0.4,0.5,0.6,0.9,0.6l16.5,0.7
		h0c0.1,0,0.3,0,0.4-0.1l8.5-3.5l-5.3,11.7l-6.8,2.8c-0.4,0.2-0.6,0.5-0.6,0.9c0,0.4,0.2,0.8,0.5,0.9l2.8,1.5l-0.8,0.4l0.8,1.8
		l3-1.3l0,0l8.1-3.3c0,0,0,0,0,0c0,0,0.1,0,0.2-0.1l0.1-0.1l0.1-0.1c0,0,0.1-0.1,0.1-0.1c0,0,0,0,0,0l11.7-20.7L56.4,11
		c2.6-1.1,3.8-4,2.7-6.5c-0.6-1.5-1.9-2.5-3.4-2.9l-4.8-1.2c-2.1-0.5-4.3-0.4-6.3,0.4L15.2,13L5,10.9c-0.2,0-0.4,0-0.6,0.1l-3.7,1.5
		c-0.5,0.2-0.8,0.8-0.5,1.3L2.5,19.3z"/>
	<polygon class="st1" points="42.4,6 44.3,5.2 45,7.1 43.2,7.8 	"/>
	<rect x="39" y="7" transform="matrix(0.925 -0.38 0.38 0.925 -5.375957e-02 15.8205)" class="st1" width="2" height="2"/>
	<polygon class="st1" points="16.9,41.3 18.7,40.5 19.5,42.4 17.6,43.1 	"/>
	<polygon class="st1" points="13.2,42.8 15,42 15.8,43.9 13.9,44.7 	"/>
	<polygon class="st1" points="35.1,9.1 36.9,8.3 37.7,10.1 35.8,10.9 	"/>
	<path class="st0" d="M34,51h10v6H34V51z M48,44v13h-2V44H48z M50.2,34l0.5,2h-7.4l0.5-2H50.2z M45.6,42l-2-4h6.8l-2,4H45.6z M56,51
		v6h-6v-6H56z M59,57h-1v-7c0-0.6-0.5-1-1-1h-7v-5h3v-2h-2.4l2.3-4.6c0-0.1,0.1-0.2,0.1-0.3v-0.1c0-0.1,0-0.2,0-0.3v0l-1-4
		c-0.1-0.5-0.5-0.8-1-0.8h-3v-4h-2v4h-3c-0.5,0-0.9,0.3-1,0.8l-1,4v0c0,0.1,0,0.2,0,0.3v0.1c0,0.1,0.1,0.2,0.1,0.3l2.3,4.6H41v2h3v5
		H33c-0.5,0-1,0.4-1,1v7H1c-0.6,0-1,0.4-1,1c0,0.5,0.4,1,1,1h58c0.5,0,1-0.5,1-1C60,57.5,59.5,57,59,57z"/>
	<rect x="36" y="53" class="st1" width="2" height="2"/>
	<rect x="40" y="53" class="st1" width="2" height="2"/>
	<rect x="52" y="53" class="st1" width="2" height="2"/>
</g>
</svg>
