<?xml version="1.0" encoding="utf-8"?>
<!-- Generator: Adobe Illustrator 21.0.0, SVG Export Plug-In . SVG Version: 6.00 Build 0)  -->
<svg version="1.1" id="圖層_1" xmlns="http://www.w3.org/2000/svg" xmlns:xlink="http://www.w3.org/1999/xlink" x="0px" y="0px"
	 viewBox="0 0 19 20" style="enable-background:new 0 0 19 20;" xml:space="preserve">
<path d="M10,20v-3.1l5.5-5.5c0.1-0.1,0.3-0.3,0.5-0.3c0.2-0.1,0.4-0.1,0.6-0.1c0.2,0,0.4,0,0.6,0.1c0.2,0.1,0.4,0.2,0.5,0.3l0.9,0.9
	c0.1,0.2,0.2,0.3,0.3,0.5c0.1,0.2,0.1,0.4,0.1,0.6s0,0.4-0.1,0.6c-0.1,0.2-0.2,0.4-0.3,0.5L13.1,20H10z M11.5,18.5h0.9l3-3.1L15,15
	l-0.5-0.4l-3.1,3V18.5z M2,20c-0.5,0-1-0.2-1.4-0.6S0,18.6,0,18V2c0-0.5,0.2-1,0.6-1.4S1.5,0,2,0h8l6,6v3h-2V7H9V2H2v16h6v2H2z
	 M15,15l-0.5-0.4l0.9,0.9L15,15z"/>
</svg>
