<?xml version="1.0" encoding="utf-8"?>
<!-- Generator: Adobe Illustrator 21.0.0, SVG Export Plug-In . SVG Version: 6.00 Build 0)  -->
<svg version="1.1" id="圖層_1" xmlns="http://www.w3.org/2000/svg" xmlns:xlink="http://www.w3.org/1999/xlink" x="0px" y="0px"
	 viewBox="0 0 199 76" style="enable-background:new 0 0 199 76;" xml:space="preserve">
<style type="text/css">
	.st0{fill-rule:evenodd;clip-rule:evenodd;fill:#FFFFFF;}
</style>
<path class="st0" d="M11.9,7.7v10.2c0.3,0,0.6,0,0.8,0c1,0,1.8-0.2,2.2-0.7c0.4-0.5,0.6-1.4,0.6-2.9v-3.3c0-1.4-0.2-2.3-0.7-2.7
	C14.3,7.9,13.4,7.7,11.9,7.7z M0.5,0.8H12c3.1,0,5.5,0.2,7.2,0.7c1.7,0.5,2.9,1.1,3.8,1.9s1.4,1.9,1.7,3c0.3,1.2,0.4,3,0.4,5.5v3.5
	c0,2.6-0.3,4.4-0.9,5.6c-0.6,1.2-1.6,2.1-3.2,2.7c-1.6,0.6-3.6,0.9-6.1,0.9h-3.1v16.1H0.5V0.8z"/>
<path class="st0" d="M40.7,26.5c-0.6-4.5-1.2-10.1-1.7-16.8C37.8,17.4,37,23,36.7,26.5H40.7z M46.7,0.8l6.5,39.9H41.6L41,33.6h-4.1
	l-0.7,7.2H24.4l5.8-39.9H46.7z"/>
<path class="st0" d="M66.6,7.7v8.9c1.3,0,2.2-0.2,2.7-0.5c0.5-0.3,0.8-1.4,0.8-3.1v-2.2c0-1.3-0.3-2.1-0.8-2.5
	C68.8,7.9,67.9,7.7,66.6,7.7z M55.2,0.8h8.1c5.4,0,9,0.2,10.9,0.6c1.9,0.4,3.5,1.3,4.7,2.9c1.2,1.6,1.8,4,1.8,7.4
	c0,3.1-0.4,5.2-1.3,6.3s-2.5,1.7-5,1.9c2.3,0.5,3.8,1.2,4.6,2c0.8,0.9,1.3,1.6,1.4,2.4c0.2,0.7,0.3,2.7,0.3,5.9v10.5H70.1V27.5
	c0-2.1-0.2-3.5-0.6-4s-1.3-0.8-2.9-0.8v18H55.2V0.8z"/>
<polygon class="st0" points="112.3,0.8 105.8,18.9 112.9,40.8 101.1,40.8 96.5,23.6 96.5,40.8 85.1,40.8 85.1,0.8 96.5,0.8 
	96.5,16.4 101.6,0.8 "/>
<path class="st0" d="M138.2,12.9h-10.6v-3c0-1.4-0.1-2.3-0.4-2.6c-0.3-0.4-0.7-0.6-1.4-0.6c-0.7,0-1.2,0.3-1.6,0.8
	c-0.4,0.5-0.5,1.3-0.5,2.3c0,1.3,0.2,2.3,0.6,3c0.4,0.7,1.5,1.5,3.2,2.4c5.1,2.7,8.3,5,9.6,6.8c1.3,1.8,2,4.6,2,8.5
	c0,2.8-0.4,4.9-1.1,6.3c-0.7,1.3-2.1,2.5-4.2,3.4c-2.1,0.9-4.5,1.4-7.3,1.4c-3.1,0-5.7-0.5-7.8-1.6c-2.2-1.1-3.6-2.4-4.2-4
	c-0.7-1.6-1-3.9-1-6.9v-2.6h10.6v4.9c0,1.5,0.2,2.5,0.5,2.9c0.3,0.4,0.8,0.6,1.6,0.6c0.8,0,1.3-0.3,1.7-0.8c0.4-0.5,0.5-1.3,0.5-2.4
	c0-2.4-0.3-3.9-1-4.6c-0.7-0.7-2.5-1.9-5.3-3.6c-2.8-1.7-4.7-3-5.6-3.7c-0.9-0.8-1.7-1.8-2.3-3.2c-0.6-1.4-0.9-3.1-0.9-5.2
	c0-3.1,0.4-5.3,1.3-6.7c0.9-1.4,2.3-2.5,4.2-3.3c1.9-0.8,4.2-1.2,6.9-1.2c3,0,5.5,0.4,7.6,1.3s3.5,2,4.1,3.3c0.7,1.3,1,3.6,1,6.7
	V12.9z"/>
<path class="st0" d="M157.4,11.1c0-1.9-0.1-3.1-0.3-3.6c-0.2-0.5-0.7-0.8-1.4-0.8c-0.6,0-1.1,0.2-1.4,0.6c-0.3,0.4-0.5,1.7-0.5,3.7
	v18.6c0,2.3,0.1,3.7,0.3,4.3c0.2,0.5,0.7,0.8,1.5,0.8c0.8,0,1.3-0.3,1.5-0.9c0.2-0.6,0.3-2.1,0.3-4.5V11.1z M168.9,24.2
	c0,4-0.1,6.9-0.3,8.5c-0.2,1.7-0.9,3.2-1.9,4.6c-1.1,1.4-2.6,2.5-4.4,3.2c-1.9,0.7-4,1.1-6.5,1.1c-2.4,0-4.5-0.3-6.3-1
	c-1.9-0.7-3.4-1.8-4.5-3.1c-1.1-1.4-1.8-2.9-2-4.6c-0.2-1.6-0.3-4.5-0.3-8.6v-6.8c0-4,0.1-6.8,0.3-8.5c0.2-1.7,0.9-3.2,2-4.6
	c1.1-1.4,2.6-2.4,4.4-3.2c1.9-0.7,4-1.1,6.5-1.1c2.3,0,4.5,0.3,6.3,1c1.9,0.7,3.4,1.7,4.5,3.1s1.8,2.9,2,4.6
	c0.2,1.6,0.3,4.5,0.3,8.6V24.2z"/>
<polygon class="st0" points="198.6,0.8 198.6,40.8 188.6,40.8 182.7,22.6 182.7,40.8 173.1,40.8 173.1,0.8 182.7,0.8 189.1,18.8 
	189.1,0.8 "/>
<path class="st0" d="M11.5,68.4c-1,0.5-2.4,0.8-3.9,0.8c-2,0-3.7-0.6-4.9-1.9c-1.2-1.3-1.8-3-1.8-5.1c0-2.2,0.7-4,2-5.4
	c1.4-1.4,3.1-2.1,5.3-2.1c1.4,0,2.5,0.2,3.4,0.6v2.2c-1-0.5-2.1-0.8-3.3-0.8c-1.5,0-2.8,0.5-3.7,1.5c-0.9,1-1.4,2.3-1.4,3.9
	c0,1.5,0.4,2.8,1.3,3.8c0.9,0.9,2,1.4,3.5,1.4c1.4,0,2.6-0.3,3.6-0.9V68.4z"/>
<path class="st0" d="M26.5,69h-2.4l-6.7-10.3c-0.3-0.4-0.4-0.7-0.6-1h0c0,0.4,0.1,1,0.1,2V69h-2.1V55h2.6l6.6,10.1
	c0.3,0.5,0.5,0.8,0.6,1h0.1c-0.1-0.4-0.1-1.1-0.1-2V55h2.1V69z"/>
<path class="st0" d="M40.3,68.4c-1,0.5-2.4,0.8-3.9,0.8c-2,0-3.7-0.6-4.9-1.9c-1.2-1.3-1.8-3-1.8-5.1c0-2.2,0.7-4,2-5.4
	c1.4-1.4,3.1-2.1,5.3-2.1c1.3,0,2.5,0.2,3.4,0.6v2.2c-1-0.5-2.1-0.8-3.3-0.8c-1.5,0-2.8,0.5-3.7,1.5c-0.9,1-1.4,2.3-1.4,3.9
	c0,1.5,0.4,2.8,1.3,3.8c0.9,0.9,2,1.4,3.5,1.4c1.4,0,2.5-0.3,3.6-0.9V68.4z"/>
<path class="st0" d="M59.5,56.8v4.7h1.9c0.8,0,1.5-0.2,1.9-0.7c0.5-0.5,0.7-1.1,0.7-1.8c0-1.5-0.9-2.2-2.6-2.2H59.5z M68,69h-2.6
	l-2.3-3.8c-0.5-0.7-0.9-1.3-1.2-1.5c-0.4-0.3-0.8-0.4-1.3-0.4h-1.2V69h-2.2V55h4.5c1.5,0,2.6,0.3,3.4,1c0.8,0.6,1.2,1.6,1.2,2.8
	c0,0.9-0.3,1.7-0.8,2.4c-0.6,0.7-1.3,1.1-2.3,1.4v0c0.6,0.2,1.3,1,2.1,2.2L68,69z"/>
<path class="st0" d="M71.5,62c0,1.5,0.4,2.8,1.2,3.8c0.8,1,1.9,1.5,3.2,1.5c1.4,0,2.5-0.5,3.3-1.4c0.8-1,1.2-2.2,1.2-3.8
	c0-1.7-0.4-3-1.1-3.9c-0.8-1-1.8-1.5-3.3-1.5c-1.4,0-2.5,0.5-3.3,1.5S71.5,60.5,71.5,62z M69.3,62.2c0-2.2,0.6-4,1.9-5.4
	c1.2-1.4,2.9-2,5-2c2,0,3.6,0.7,4.8,2c1.2,1.3,1.8,3,1.8,5.1c0,2.2-0.6,4-1.8,5.3c-1.2,1.4-2.9,2-5,2c-2,0-3.6-0.7-4.8-2
	C69.9,66,69.3,64.3,69.3,62.2z"/>
<polygon class="st0" points="94.7,56.9 90.7,56.9 90.7,69 88.5,69 88.5,56.9 84.4,56.9 84.4,55 94.7,55 "/>
<path class="st0" d="M104.4,63.6l-2-5.5c-0.1-0.2-0.1-0.6-0.2-1.1h-0.1c0,0.4-0.1,0.8-0.2,1l-2,5.5H104.4z M108.7,69h-2.4l-1.3-3.6
	h-5.6L98.1,69h-2.4l5.3-14h2.4L108.7,69z"/>
<path class="st0" d="M113.3,56.8v4.7h1.9c0.8,0,1.5-0.2,1.9-0.7c0.5-0.5,0.7-1.1,0.7-1.8c0-1.5-0.9-2.2-2.6-2.2H113.3z M121.8,69
	h-2.6l-2.3-3.8c-0.4-0.7-0.9-1.3-1.2-1.5c-0.4-0.3-0.8-0.4-1.3-0.4h-1.2V69h-2.2V55h4.5c1.5,0,2.6,0.3,3.4,1
	c0.8,0.6,1.2,1.6,1.2,2.8c0,0.9-0.3,1.7-0.8,2.4c-0.6,0.7-1.3,1.1-2.3,1.4v0c0.6,0.2,1.3,1,2.1,2.2L121.8,69z"/>
<path class="st0" d="M133.7,55l-4.6,8.9V69h-2.2v-5l-4.5-8.9h2.5l2.8,5.9l0.3,1h0c0.1-0.3,0.2-0.6,0.4-0.9l2.9-6H133.7z"/>
<polygon class="st0" points="152.1,56.9 148,56.9 148,69 145.8,69 145.8,56.9 141.8,56.9 141.8,55 152.1,55 "/>
<path class="st0" d="M161.7,63.6l-2-5.5c-0.1-0.2-0.1-0.6-0.2-1.1h-0.1c-0.1,0.4-0.1,0.8-0.2,1l-2,5.5H161.7z M166.1,69h-2.4
	l-1.3-3.6h-5.6l-1.3,3.6H153l5.3-14h2.4L166.1,69z"/>
<path class="st0" d="M170.7,62.7v4.6h2.1c0.9,0,1.6-0.2,2.1-0.6c0.5-0.4,0.7-1,0.7-1.7c0-1.5-1-2.2-3-2.2H170.7z M170.7,56.8v4.1
	h1.6c0.8,0,1.5-0.2,1.9-0.6c0.5-0.4,0.7-1,0.7-1.6c0-1.2-0.9-1.9-2.6-1.9H170.7z M168.5,69V55h4.4c1.3,0,2.4,0.3,3.1,0.9
	c0.8,0.6,1.2,1.4,1.2,2.4c0,0.8-0.2,1.4-0.7,2c-0.5,0.6-1.1,1-1.9,1.2v0c1,0.1,1.7,0.5,2.3,1.1c0.6,0.6,0.9,1.4,0.9,2.3
	c0,1.2-0.4,2.2-1.3,2.9c-0.9,0.8-2,1.1-3.5,1.1H168.5z"/>
<polygon class="st0" points="188.7,69 181,69 181,55 183.1,55 183.1,67.1 188.7,67.1 "/>
<polygon class="st0" points="199,69 191.2,69 191.2,55 198.7,55 198.7,56.9 193.4,56.9 193.4,61 198.3,61 198.3,62.8 193.4,62.8 
	193.4,67.1 199,67.1 "/>
<rect y="74.6" class="st0" width="199" height="1.4"/>
</svg>
